<?xml version="1.0" encoding="UTF-8"?>
<svg version="1.1" xmlns="http://www.w3.org/2000/svg" width="200" height="200">
<path d="M0 0 C66 0 132 0 200 0 C200 66 200 132 200 200 C134 200 68 200 0 200 C0 134 0 68 0 0 Z " fill="#CA1B27" transform="translate(0,0)"/>
<path d="M0 0 C6.02353634 -0.5461955 9.33271489 0.97177463 14.0625 4.4375 C15.38126363 5.35061694 16.70028006 6.26336886 18.01953125 7.17578125 C19.97936576 8.55944635 21.93243839 9.95114398 23.87646484 11.35693359 C33.37952029 18.22684558 33.37952029 18.22684558 44.890625 19.12109375 C45.58671875 19.08113281 46.2828125 19.04117188 47 19 C49 21 49 21 49 24 C49.9379541 23.76289307 50.8759082 23.52578613 51.84228516 23.28149414 C55.34167607 22.39755661 58.84186009 21.51679537 62.34228516 20.63696289 C63.85356919 20.25663655 65.36464043 19.87546357 66.87548828 19.4934082 C69.05445058 18.94256309 71.23417468 18.39482577 73.4140625 17.84765625 C74.08305573 17.6778273 74.75204895 17.50799835 75.4413147 17.33302307 C84.28080816 15.12262827 94.16836121 12.71773308 102.6875 17 C103.780625 17.66 104.87375 18.32 106 19 C105.9375 20.75 105.9375 20.75 105 23 C99.20353424 27.25450899 92.80377727 28.52007688 85.875 30.0625 C84.76294189 30.32071533 83.65088379 30.57893066 82.50512695 30.8449707 C77.88222038 31.91470905 73.25331438 32.95254038 68.61328125 33.9453125 C67.48277344 34.19023438 66.35226563 34.43515625 65.1875 34.6875 C64.25292969 34.87699219 63.31835938 35.06648438 62.35546875 35.26171875 C59.74624147 36.07953626 58.07575571 37.24359132 56 39 C57.299375 38.814375 58.59875 38.62875 59.9375 38.4375 C62.15234375 38.12109375 62.15234375 38.12109375 64 38 C65 39 65 39 65.0625 42.0625 C65.041875 43.031875 65.02125 44.00125 65 45 C64.11957031 45.02835938 63.23914063 45.05671875 62.33203125 45.0859375 C58.64668854 45.38861826 55.50308398 45.79554982 52 47 C49.43546157 50.06122769 48.14390267 53.19634817 47 57 C46.01 57 45.02 57 44 57 C43.74605469 56.16855469 43.49210937 55.33710937 43.23046875 54.48046875 C42.88628906 53.39378906 42.54210937 52.30710938 42.1875 51.1875 C41.85105469 50.10855469 41.51460937 49.02960938 41.16796875 47.91796875 C39.79022305 44.36166095 39.79022305 44.36166095 37 42 C34.22090779 41.81768308 34.22090779 41.81768308 31.1875 42.25 C30.17042969 42.35828125 29.15335938 42.4665625 28.10546875 42.578125 C26.11002345 42.84920436 24.11908331 43.15743532 22.13671875 43.51171875 C18.30244585 44.10858564 14.49658676 44.34896764 10.625 44.5625 C9.88894531 44.60568359 9.15289062 44.64886719 8.39453125 44.69335938 C6.59651932 44.79843799 4.79828042 44.89962093 3 45 C2.01 47.475 2.01 47.475 1 50 C1.55349121 49.98428955 2.10698242 49.9685791 2.67724609 49.95239258 C28.10975142 49.32518095 28.10975142 49.32518095 39 59 C40.68528688 60.64783606 42.35697047 62.31002677 44 64 C45.485 64.99 45.485 64.99 47 66 C47.680625 65.01 47.680625 65.01 48.375 64 C48.91125 63.34 49.4475 62.68 50 62 C50.66 62 51.32 62 52 62 C52 61.34 52 60.68 52 60 C62.87997958 50.57371289 74.9352813 48.15272779 89 49 C100.70504775 50.6140511 100.70504775 50.6140511 104.16796875 54.3203125 C104.77253906 55.20460937 105.37710938 56.08890625 106 57 C106.56203125 57.78761719 107.1240625 58.57523438 107.703125 59.38671875 C108.21359375 60.14597656 108.7240625 60.90523437 109.25 61.6875 C110.03117187 62.83798828 110.03117187 62.83798828 110.828125 64.01171875 C112 66 112 66 112 68 C107.37719788 66.54016775 102.93261143 64.77273622 98.46484375 62.90234375 C88.12185697 59.11592545 75.11644771 59.88535919 65 64 C58.17462583 67.36175146 52.51312156 71.79487406 47 77 C46.53851563 76.63648437 46.07703125 76.27296875 45.6015625 75.8984375 C32.59394526 65.87280366 19.76420463 59.52773379 3 61 C-1.44112476 62.05764935 -5.70184219 63.47052566 -10 65 C-11.99907472 65.66943611 -13.99880847 66.33691863 -16 67 C-14.62364555 63.19277076 -12.87361726 60.07005662 -10.5625 56.75 C-9.96566406 55.87859375 -9.36882813 55.0071875 -8.75390625 54.109375 C-7 52 -7 52 -4 51 C-4.33 50.401875 -4.66 49.80375 -5 49.1875 C-6 47 -6 47 -6 44 C-8.31 44 -10.62 44 -13 44 C-13 42.68 -13 41.36 -13 40 C-14.51836752 38.50658395 -14.51836752 38.50658395 -16.5 37.375 C-18.46875 36.1484375 -18.46875 36.1484375 -20 35 C-20 34.34 -20 33.68 -20 33 C-16.7 33.33 -13.4 33.66 -10 34 C-10.28875 33.16855469 -10.5775 32.33710937 -10.875 31.48046875 C-11.24625 30.39378906 -11.6175 29.30710937 -12 28.1875 C-12.37125 27.10855469 -12.7425 26.02960937 -13.125 24.91796875 C-14 22 -14 22 -14 19 C-10.17040392 18.61026235 -8.41984525 18.72566276 -5.1484375 20.86328125 C-4.23320313 21.67152344 -3.31796875 22.47976562 -2.375 23.3125 C-1.45460938 24.11300781 -0.53421875 24.91351563 0.4140625 25.73828125 C1.26742187 26.48464844 2.12078125 27.23101562 3 28 C6.30240565 30.78678841 8.19815581 31.32858305 12.609375 31.30078125 C16.16171752 30.85383619 19.53768158 29.90903967 23 29 C21.88207166 27.67881196 20.76410782 26.35765394 19.64599609 25.03662109 C18.66527025 23.87728297 17.68513667 22.7174436 16.70556641 21.55712891 C14.10241944 18.47539508 11.48995061 15.40266573 8.85546875 12.34765625 C8.35571533 11.7652417 7.85596191 11.18282715 7.34106445 10.58276367 C6.37835382 9.46133805 5.41214606 8.3429033 4.44213867 7.2277832 C2.37489419 4.81237925 1.01692403 3.05077208 0 0 Z " fill="#FCF4F3" transform="translate(51,33)"/>
<path d="M0 0 C1.2684375 0.88558594 1.2684375 0.88558594 2.5625 1.7890625 C5.07470818 3.4236082 7.0782285 4.66878983 10 5.375 C12.3711396 4.25534797 12.3711396 4.25534797 14.5625 2.3125 C27.36672832 -7.40567928 41.41329568 -8.99765149 57 -7.625 C60.07624252 -7.10045091 63.0195364 -6.35731401 66 -5.4375 C66.97706909 -5.14335205 66.97706909 -5.14335205 67.97387695 -4.84326172 C72.29363335 -3.34846884 74.52043918 -1.42859814 77 2.375 C77.75 4.6875 77.75 4.6875 78 6.375 C72.70917147 5.77083665 67.59355827 4.89490638 62.375 3.8125 C46.82308027 0.91802275 29.94038136 0.59599091 15 6.375 C13.27758908 7.89799681 13.27758908 7.89799681 12 9.375 C8.14571259 10.00244214 5.71647967 9.36870523 2.375 7.5625 C-13.47423095 -0.76204934 -36.30924921 0.36940049 -53.125 5.5625 C-55.98046189 6.36947836 -57.28144368 6.46242253 -60 5.375 C-57.49408855 -0.29053893 -55.34602911 -2.48727658 -49.609375 -4.80078125 C-32.88796737 -10.08254324 -15.05181634 -9.57479419 0 0 Z " fill="#FBEBEB" transform="translate(89,104.625)"/>
<path d="M0 0 C1.65 0 3.3 0 5 0 C5.99 2.31 6.98 4.62 8 7 C9.32 4.69 10.64 2.38 12 0 C14.31 0 16.62 0 19 0 C19 1.32 19 2.64 19 4 C19.515625 3.34 20.03125 2.68 20.5625 2 C23 0 23 0 26.5 -0.5 C30 0 30 0 32.4375 1.4375 C34.75364638 5.23598007 34.90388217 8.67088015 34 13 C31.9375 15.625 31.9375 15.625 29 17 C25.4375 17.125 25.4375 17.125 22 16 C19.5625 12.9375 19.5625 12.9375 18 10 C17.67 12.64 17.34 15.28 17 18 C17.99 18.33 18.98 18.66 20 19 C19 22 19 22 17 23 C17.66 23.33 18.32 23.66 19 24 C18.79503906 24.67546875 18.59007813 25.3509375 18.37890625 26.046875 C18.10949219 26.93890625 17.84007813 27.8309375 17.5625 28.75 C17.29566406 29.63171875 17.02882813 30.5134375 16.75390625 31.421875 C16.11531506 33.60565835 15.53224167 35.78835498 15 38 C13.68 38 12.36 38 11 38 C10.72285156 37.21753906 10.44570313 36.43507812 10.16015625 35.62890625 C9.79792969 34.61699219 9.43570313 33.60507813 9.0625 32.5625 C8.70285156 31.55316406 8.34320313 30.54382813 7.97265625 29.50390625 C7.23122361 27.09686255 7.23122361 27.09686255 6 26 C6.66 29.96 7.32 33.92 8 38 C7.01 38 6.02 38 5 38 C5 37.01 5 36.02 5 35 C3.35 35 1.7 35 0 35 C0 35.99 0 36.98 0 38 C-1.32 38 -2.64 38 -4 38 C-3.01 34.37 -2.02 30.74 -1 27 C-1.33 27 -1.66 27 -2 27 C-2.02698189 25.37509046 -2.04638757 23.75005367 -2.0625 22.125 C-2.07410156 21.22007812 -2.08570312 20.31515625 -2.09765625 19.3828125 C-2 17 -2 17 -1 15 C-0.76827173 12.45384991 -0.58105471 9.92603775 -0.4375 7.375 C-0.39431641 6.66859375 -0.35113281 5.9621875 -0.30664062 5.234375 C-0.20055249 3.48981463 -0.09977111 1.74493303 0 0 Z " fill="#CA2C38" transform="translate(23,121)"/>
<path d="M0 0 C3.0501421 4.31226987 4.8125 9.26637367 4.8125 14.5625 C5.8025 14.2325 6.7925 13.9025 7.8125 13.5625 C8.54154086 11.92215807 9.19905243 10.24948082 9.8125 8.5625 C11.0859375 5.828125 11.0859375 5.828125 12.8125 3.5625 C16.5158128 2.23756111 19.92247921 2.05667686 23.8125 2.5625 C24.8025 3.2225 25.7925 3.8825 26.8125 4.5625 C26.4825 5.5525 26.1525 6.5425 25.8125 7.5625 C26.4725 7.5625 27.1325 7.5625 27.8125 7.5625 C27.4825 8.5525 27.1525 9.5425 26.8125 10.5625 C25.10799086 11.3164175 23.39889444 12.06315779 21.66015625 12.734375 C19.03160711 13.91249851 17.01837813 15.73477241 14.8125 17.5625 C14.1525 17.5625 13.4925 17.5625 12.8125 17.5625 C12.8125 18.2225 12.8125 18.8825 12.8125 19.5625 C11.52284824 20.93812854 10.18560707 22.27016393 8.8125 23.5625 C8.1525 24.2225 7.4925 24.8825 6.8125 25.5625 C6.3175 24.69625 5.8225 23.83 5.3125 22.9375 C2.58117906 18.82593858 -1.1490045 16.30087623 -5.1875 13.5625 C-6.0125 12.985 -6.8375 12.4075 -7.6875 11.8125 C-14.64465598 8.33392201 -21.5818132 8.30112217 -29.1875 8.4375 C-30.15300781 8.44652344 -31.11851563 8.45554687 -32.11328125 8.46484375 C-34.47162099 8.48819365 -36.82942286 8.52093953 -39.1875 8.5625 C-37.3125 2.6875 -37.3125 2.6875 -36.1875 1.5625 C-33.74626918 1.37332713 -31.32003386 1.23385997 -28.875 1.125 C-22.75809407 0.80827808 -16.85700529 0.14662926 -10.8359375 -1.03515625 C-3.31412118 -2.17785106 -3.31412118 -2.17785106 0 0 Z " fill="#BE2027" transform="translate(90.1875,75.4375)"/>
<path d="M0 0 C0.99 0 1.98 0 3 0 C3.33 3.96 3.66 7.92 4 12 C5.32 12 6.64 12 8 12 C8.33 8.04 8.66 4.08 9 0 C10.32 0 11.64 0 13 0 C13.33 4.29 13.66 8.58 14 13 C14.33 8.71 14.66 4.42 15 0 C18.63 0 22.26 0 26 0 C25.67 1.32 25.34 2.64 25 4 C23.35 4 21.7 4 20 4 C20 4.66 20 5.32 20 6 C21.65 6 23.3 6 25 6 C25 7.32 25 8.64 25 10 C23.35 10 21.7 10 20 10 C20 10.99 20 11.98 20 13 C21.98 13 23.96 13 26 13 C26 14.32 26 15.64 26 17 C22.7 17 19.4 17 16 17 C16 18.32 16 19.64 16 21 C14.02 21 12.04 21 10 21 C10 21.66 10 22.32 10 23 C11.134375 23.309375 12.26875 23.61875 13.4375 23.9375 C17 25 17 25 18 26 C18.23255814 30.53488372 18.23255814 30.53488372 17 33 C17.89363605 35.60931266 17.89363605 35.60931266 19 38 C17.68 38 16.36 38 15 38 C14.34 36.68 13.68 35.36 13 34 C12.67 35.32 12.34 36.64 12 38 C9.36 38 6.72 38 4 38 C4 37.01 4 36.02 4 35 C2.35 35 0.7 35 -1 35 C-1 35.99 -1 36.98 -1 38 C-1.99 38 -2.98 38 -4 38 C-3.46148032 32.72250715 -2.22656164 28.74354436 0 24 C1.32 24 2.64 24 4 24 C4.33448259 21.167832 4.33448259 21.167832 4 18 C3.34 17.4225 2.68 16.845 2 16.25 C-0.81373931 13.08454328 -0.40401419 10.90838315 -0.25 6.75 C-0.21390625 5.48671875 -0.1778125 4.2234375 -0.140625 2.921875 C-0.09421875 1.95765625 -0.0478125 0.9934375 0 0 Z " fill="#CF4F55" transform="translate(148,121)"/>
<path d="M0 0 C0.33 0 0.66 0 1 0 C1 5.61 1 11.22 1 17 C2.65 17 4.3 17 6 17 C6 15.02 6 13.04 6 11 C6.66 11 7.32 11 8 11 C8.495 11.763125 8.99 12.52625 9.5 13.3125 C13.05271136 17.13166471 17.02900878 17.83314519 22 19 C22 18.01 22 17.02 22 16 C21.34 15.67 20.68 15.34 20 15 C20.66 14.67 21.32 14.34 22 14 C22.66 14.66 23.32 15.32 24 16 C23.505 17.485 23.505 17.485 23 19 C23.99 19 24.98 19 26 19 C26 19.99 26 20.98 26 22 C26.66 22 27.32 22 28 22 C28.33 20.35 28.66 18.7 29 17 C30.98 17 32.96 17 35 17 C35 17.33 35 17.66 35 18 C33.35 18 31.7 18 30 18 C30 19.98 30 21.96 30 24 C29.38640625 24.03996094 28.7728125 24.07992187 28.140625 24.12109375 C25.69966536 24.84032961 25.69966536 24.84032961 24.734375 27.72265625 C24.40953125 28.82480469 24.0846875 29.92695313 23.75 31.0625 C23.41484375 32.16722656 23.0796875 33.27195313 22.734375 34.41015625 C22.49203125 35.26480469 22.2496875 36.11945313 22 37 C19.984375 35.234375 19.984375 35.234375 18 33 C18.25 29.25 18.25 29.25 19 26 C16.36 25.67 13.72 25.34 11 25 C11 29.29 11 33.58 11 38 C11.99 38 12.98 38 14 38 C14 36.35 14 34.7 14 33 C14.99 33.99 15.98 34.98 17 36 C16.67 36.99 16.34 37.98 16 39 C13.03 38.67 10.06 38.34 7 38 C7.165 37.113125 7.33 36.22625 7.5 35.3125 C8.2283185 30.48738993 8.53694752 27.28109894 6 23 C2.04 23.495 2.04 23.495 -2 24 C-2 23.34 -2 22.68 -2 22 C-2.66 22 -3.32 22 -4 22 C-4 20.68 -4 19.36 -4 18 C-5.91731918 18.11455681 -7.8338675 18.24206258 -9.75 18.375 C-10.81734375 18.44460937 -11.8846875 18.51421875 -12.984375 18.5859375 C-15.80206432 18.9728223 -17.5830366 19.55686166 -20 21 C-20.66 20.01 -21.32 19.02 -22 18 C-22.66 17.34 -23.32 16.68 -24 16 C-26.10820797 16.3185177 -26.10820797 16.3185177 -28 17 C-28 16.01 -28 15.02 -28 14 C-26.35 14 -24.7 14 -23 14 C-22.34 11.69 -21.68 9.38 -21 7 C-20.67 7 -20.34 7 -20 7 C-20 9.97 -20 12.94 -20 16 C-19.01 16 -18.02 16 -17 16 C-17 14.35 -17 12.7 -17 11 C-16.67 11 -16.34 11 -16 11 C-16 12.98 -16 14.96 -16 17 C-14.22844346 16.88570603 -12.45773771 16.75816963 -10.6875 16.625 C-9.70136719 16.55539063 -8.71523437 16.48578125 -7.69921875 16.4140625 C-4.78471567 16.16134528 -4.78471567 16.16134528 -2 14 C-1.1928418 10.66149945 -1.1928418 10.66149945 -0.8125 6.875 C-0.65394531 5.59367187 -0.49539062 4.31234375 -0.33203125 2.9921875 C-0.16767578 1.51105469 -0.16767578 1.51105469 0 0 Z " fill="#C72027" transform="translate(122,121)"/>
<path d="M0 0 C0.70125 0.144375 1.4025 0.28875 2.125 0.4375 C5.10611744 1.14138278 5.10611744 1.14138278 8.625 0.8125 C12 1 12 1 13.9375 2.4375 C15.50603314 6.22043287 15.57308803 9.95861299 15 14 C14.01 15.485 14.01 15.485 13 17 C10.27734375 17.328125 10.27734375 17.328125 6.9375 17.25 C5.19533203 17.20939453 5.19533203 17.20939453 3.41796875 17.16796875 C-8.41346154 16.58653846 -8.41346154 16.58653846 -10 15 C-10.07258946 12.81360547 -10.08373783 10.62499611 -10.0625 8.4375 C-10.05347656 7.23996094 -10.04445313 6.04242188 -10.03515625 4.80859375 C-10.02355469 3.88175781 -10.01195313 2.95492187 -10 2 C-8.35 2 -6.7 2 -5 2 C-5 5.3 -5 8.6 -5 12 C-3.68 12 -2.36 12 -1 12 C-1.01160156 11.21753906 -1.02320312 10.43507812 -1.03515625 9.62890625 C-1.04417969 8.61699219 -1.05320312 7.60507813 -1.0625 6.5625 C-1.07410156 5.55316406 -1.08570312 4.54382813 -1.09765625 3.50390625 C-1 1 -1 1 0 0 Z " fill="#A81720" transform="translate(116,143)"/>
<path d="M0 0 C3.14565046 -0.08845016 6.29097375 -0.14086835 9.4375 -0.1875 C10.31599609 -0.21263672 11.19449219 -0.23777344 12.09960938 -0.26367188 C18.06401508 -0.32969851 23.62751031 0.19982959 29 3 C30.5625 5.6875 30.5625 5.6875 31 8 C27.11040173 9.27159943 23.21436421 9.12651187 19.171875 9.09765625 C18.42286926 9.0962413 17.67386353 9.09482635 16.90216064 9.09336853 C14.51806588 9.08778659 12.13406622 9.07523745 9.75 9.0625 C8.13020969 9.05748266 6.51041791 9.05292016 4.890625 9.04882812 C0.92704688 9.03782308 -3.03646045 9.02057091 -7 9 C-6.2421875 5.21875 -6.2421875 5.21875 -4.0625 3.25 C-2 2 -2 2 0 2 C0 1.34 0 0.68 0 0 Z " fill="#FCF5F5" transform="translate(50,97)"/>
<path d="M0 0 C0.33 0 0.66 0 1 0 C1.04898438 0.99902344 1.09796875 1.99804688 1.1484375 3.02734375 C1.22320312 4.31769531 1.29796875 5.60804688 1.375 6.9375 C1.44460937 8.22527344 1.51421875 9.51304687 1.5859375 10.83984375 C1.72257812 11.88269531 1.85921875 12.92554688 2 14 C2.66 14.33 3.32 14.66 4 15 C2.68 15.33 1.36 15.66 0 16 C-0.144375 16.61875 -0.28875 17.2375 -0.4375 17.875 C-1 20 -1 20 -2 22 C-3.3921875 21.938125 -3.3921875 21.938125 -4.8125 21.875 C-8.15809719 21.72863661 -8.15809719 21.72863661 -11 24 C-11.80092254 26.64691668 -11.80092254 26.64691668 -12.1875 29.625 C-12.42533203 31.12933594 -12.42533203 31.12933594 -12.66796875 32.6640625 C-12.83232422 33.82035156 -12.83232422 33.82035156 -13 35 C-13.33 35 -13.66 35 -14 35 C-14 30.38 -14 25.76 -14 21 C-14.99 21 -15.98 21 -17 21 C-17.33 21.99 -17.66 22.98 -18 24 C-18.33 23.34 -18.66 22.68 -19 22 C-21.35599235 21.53248212 -21.35599235 21.53248212 -24.0625 21.375 C-24.98160156 21.30023438 -25.90070312 21.22546875 -26.84765625 21.1484375 C-27.55792969 21.09945312 -28.26820312 21.05046875 -29 21 C-29 20.67 -29 20.34 -29 20 C-25.04 20 -21.08 20 -17 20 C-17 18.68 -17 17.36 -17 16 C-20.63 15.67 -24.26 15.34 -28 15 C-28 14.67 -28 14.34 -28 14 C-24.04 14 -20.08 14 -16 14 C-15.67 12.35 -15.34 10.7 -15 9 C-14.67 9.99 -14.34 10.98 -14 12 C-14.33 12.66 -14.66 13.32 -15 14 C-13.68 14 -12.36 14 -11 14 C-10.67 12.68 -10.34 11.36 -10 10 C-8.02 10 -6.04 10 -4 10 C-3.67 10.99 -3.34 11.98 -3 13 C-2.01 13.33 -1.02 13.66 0 14 C-0.25136719 13.32453125 -0.50273438 12.6490625 -0.76171875 11.953125 C-1.06722656 11.06109375 -1.37273437 10.1690625 -1.6875 9.25 C-2.00074219 8.36828125 -2.31398438 7.4865625 -2.63671875 6.578125 C-3 4 -3 4 -1.64453125 1.671875 C-1.10183594 1.12015625 -0.55914062 0.5684375 0 0 Z " fill="#C6212E" transform="translate(87,124)"/>
<path d="M0 0 C3.4375 0.5625 3.4375 0.5625 5.875 2.0625 C8.20016487 5.78276379 7.85253129 8.20467141 7.4375 12.5625 C6.4475 14.0475 6.4475 14.0475 5.4375 15.5625 C5.74590599 17.71524948 5.74590599 17.71524948 6.4375 19.5625 C-3.3979742 18.45481553 -3.3979742 18.45481553 -6.6875 14.8125 C-8.77015968 11.20255655 -9.42873866 9.63382172 -8.5625 5.5625 C-5.92388121 1.88442532 -4.50182231 0.71081405 0 0 Z " fill="#FCDBD7" transform="translate(137.5625,120.4375)"/>
<path d="M0 0 C2.4375 1.4375 2.4375 1.4375 4 4 C4.60873844 7.12983445 4.65247963 9.874966 4 13 C1.9375 15.625 1.9375 15.625 -1 17 C-4.7455316 17 -6.98941713 16.81498619 -9.9375 14.4375 C-11.47681792 10.90612359 -11.68303974 7.78776583 -11 4 C-8.16250305 -0.53999512 -5.10870514 -0.72981502 0 0 Z " fill="#FCDFDB" transform="translate(53,121)"/>
<path d="M0 0 C1.23686563 0.73723409 2.46947123 1.48204388 3.6875 2.25 C1.6875 3.25 1.6875 3.25 -1.3046875 2.25390625 C-1.91723389 2.02437256 -2.52978027 1.79483887 -3.16088867 1.55834961 C-17.35036257 -3.66377336 -33.37400127 -4.0690303 -47.3125 2.25 C-50.53459778 3.95403051 -53.65828049 5.7403222 -56.75390625 7.6640625 C-58.90153473 8.99526428 -61.03307018 10.16660042 -63.3125 11.25 C-57.11335812 3.30238221 -49.98871394 -1.82214191 -40.3125 -4.75 C-39.22453125 -5.09804687 -38.1365625 -5.44609375 -37.015625 -5.8046875 C-24.14801814 -9.08945634 -11.45201866 -6.27091817 0 0 Z " fill="#A92324" transform="translate(160.3125,99.75)"/>
<path d="M0 0 C1.60875 -0.04125 3.2175 -0.0825 4.875 -0.125 C5.77992187 -0.14820312 6.68484375 -0.17140625 7.6171875 -0.1953125 C10 0 10 0 12 2 C12.04401732 4.33291811 12.03954234 6.66700175 12 9 C12.28520405 10.67557379 12.59955696 12.34817245 13 14 C11.0373772 16.04795423 9.5722693 16.94976638 6.73046875 17.19921875 C4.48602163 17.18861506 2.24229107 17.09892461 0 17 C0 11.39 0 5.78 0 0 Z " fill="#D69390" transform="translate(108,121)"/>
<path d="M0 0 C1.60463449 0.31008884 3.20869231 0.62316287 4.8125 0.9375 C5.70582031 1.11152344 6.59914063 1.28554687 7.51953125 1.46484375 C10 2 10 2 13 3 C12 6 12 6 10 7 C10.66 7.33 11.32 7.66 12 8 C11.79503906 8.67546875 11.59007812 9.3509375 11.37890625 10.046875 C11.10949219 10.93890625 10.84007812 11.8309375 10.5625 12.75 C10.16224609 14.07257813 10.16224609 14.07257813 9.75390625 15.421875 C9.11531506 17.60565835 8.53224167 19.78835498 8 22 C6.68 22 5.36 22 4 22 C3.32320342 20.274773 2.65898 18.54461061 2 16.8125 C1.443125 15.36810547 1.443125 15.36810547 0.875 13.89453125 C0.02363228 11.07817642 -0.17072647 8.91835561 0 6 C0.66 6 1.32 6 2 6 C2 5.01 2 4.02 2 3 C1.34 3 0.68 3 0 3 C0 2.01 0 1.02 0 0 Z " fill="#C91D2B" transform="translate(30,137)"/>
<path d="M0 0 C1.65 0 3.3 0 5 0 C5.99 2.31 6.98 4.62 8 7 C8.99 4.69 9.98 2.38 11 0 C12.65 0 14.3 0 16 0 C16 5.28 16 10.56 16 16 C15.01 16 14.02 16 13 16 C12.67 13.36 12.34 10.72 12 8 C11.34 9.98 10.68 11.96 10 14 C8.68 14 7.36 14 6 14 C5.34 12.02 4.68 10.04 4 8 C3.67 10.64 3.34 13.28 3 16 C2.01 16 1.02 16 0 16 C0 10.72 0 5.44 0 0 Z " fill="#FBDCDA" transform="translate(89,121)"/>
<path d="M0 0 C1.65 0 3.3 0 5 0 C5.99 2.31 6.98 4.62 8 7 C9.32 4.69 10.64 2.38 12 0 C13.32 0 14.64 0 16 0 C16 5.28 16 10.56 16 16 C15.01 16 14.02 16 13 16 C12.67 13.69 12.34 11.38 12 9 C11.34 10.65 10.68 12.3 10 14 C8.68 14 7.36 14 6 14 C5.34 12.02 4.68 10.04 4 8 C3.67 10.64 3.34 13.28 3 16 C2.01 16 1.02 16 0 16 C0 10.72 0 5.44 0 0 Z " fill="#FBDBDB" transform="translate(23,121)"/>
<path d="M0 0 C1.65 0 3.3 0 5 0 C5.83919398 2.26882087 6.67151724 4.53977027 7.5 6.8125 C7.73847656 7.45509766 7.97695312 8.09769531 8.22265625 8.75976562 C9.27068746 11.64933739 10 13.90076061 10 17 C8.68 16.67 7.36 16.34 6 16 C6 15.01 6 14.02 6 13 C4.02 13 2.04 13 0 13 C-0.33 14.32 -0.66 15.64 -1 17 C-2.32 17 -3.64 17 -5 17 C-1.92482916 5.47835991 -1.92482916 5.47835991 0 0 Z " fill="#FCD6D7" transform="translate(77,121)"/>
<path d="M0 0 C2.32749345 3.49124017 2.50299316 4.89222251 2 9 C-0.01200619 11.83171242 -1.12071767 12.84987863 -4.5625 13.4375 C-7 13 -7 13 -8.8125 12 C-10.71378588 8.7978343 -10.66933608 5.61742308 -10 2 C-7.07267169 -1.71545516 -4.30387612 -1.30987534 0 0 Z " fill="#FAD3CF" transform="translate(85,146)"/>
<path d="M0 0 C3.84896463 2.55030634 7.24630887 5.48742628 10.55859375 8.6953125 C6.80626737 8.6953125 5.72062301 7.59015809 2.68359375 5.4453125 C-7.32672121 -1.02349416 -17.57550703 -2.74547474 -29.2578125 -3.62231445 C-31.32497015 -3.78703579 -33.38490268 -4.0381037 -35.44140625 -4.3046875 C-35.77140625 -4.9646875 -36.10140625 -5.6246875 -36.44140625 -6.3046875 C-24.04871223 -9.92896594 -10.83811173 -6.26062187 0 0 Z " fill="#AE2C2F" transform="translate(86.44140625,100.3046875)"/>
<path d="M0 0 C5.85757604 -0.47274258 8.69712704 0.59119248 13.4375 4 C14.48808594 4.7425 15.53867188 5.485 16.62109375 6.25 C17.40613281 6.8275 18.19117187 7.405 19 8 C17.08864614 11.53600465 15.37357234 13.78972846 12 16 C10.1819528 13.90041007 8.37049966 11.79571273 6.5625 9.6875 C6.04623047 9.09259766 5.52996094 8.49769531 4.99804688 7.88476562 C4.50498047 7.30791016 4.01191406 6.73105469 3.50390625 6.13671875 C3.04830322 5.60780029 2.5927002 5.07888184 2.12329102 4.53393555 C1 3 1 3 0 0 Z " fill="#FDF1EE" transform="translate(51,33)"/>
<path d="M0 0 C3.125 0.25 3.125 0.25 4.80078125 1.48046875 C6.48480281 3.73079844 6.49714507 5.02753393 6.4375 7.8125 C6.43363281 8.59753906 6.42976562 9.38257813 6.42578125 10.19140625 C6.125 12.25 6.125 12.25 4.125 14.25 C1.43660615 14.51991906 -1.16641936 14.33737357 -3.875 14.25 C-3.90185938 12.10423363 -3.92133088 9.95837355 -3.9375 7.8125 C-3.94910156 6.61753906 -3.96070312 5.42257813 -3.97265625 4.19140625 C-3.8445987 0.33431293 -3.8445987 0.33431293 0 0 Z " fill="#FEEBED" transform="translate(124.875,144.75)"/>
<path d="M0 0 C0.99 0 1.98 0 3 0 C3.33 3.96 3.66 7.92 4 12 C5.32 12 6.64 12 8 12 C8.33 8.04 8.66 4.08 9 0 C10.32 0 11.64 0 13 0 C13.61802575 10.7639485 13.61802575 10.7639485 11.375 15.25 C9 17 9 17 5.9375 17.5 C3 17 3 17 1.328125 15.91796875 C-0.72032197 12.95977034 -0.2848777 10.35055647 -0.1875 6.8125 C-0.16042969 5.54019531 -0.13335937 4.26789063 -0.10546875 2.95703125 C-0.07066406 1.98121094 -0.03585938 1.00539063 0 0 Z " fill="#FED6D6" transform="translate(148,121)"/>
<path d="M0 0 C3.96 0 7.92 0 12 0 C10.875 5.625 10.875 5.625 8.4375 8.8125 C7.98246094 9.41707031 7.52742188 10.02164063 7.05859375 10.64453125 C6.70925781 11.09183594 6.35992187 11.53914062 6 12 C8.97 12.495 8.97 12.495 12 13 C12 14.32 12 15.64 12 17 C8.04 17 4.08 17 0 17 C0.30276876 10.94462479 3.27754038 7.48516542 7 3 C4.69 3 2.38 3 0 3 C0 2.01 0 1.02 0 0 Z " fill="#FCD8D9" transform="translate(59,121)"/>
<path d="M0 0 C-0.99 0.61875 -1.98 1.2375 -3 1.875 C-3.99 2.57625 -4.98 3.2775 -6 4 C-6 4.66 -6 5.32 -6 6 C-5.01 6.66 -4.02 7.32 -3 8 C-5.24623699 8.69969682 -7.49716414 9.38435043 -9.75 10.0625 C-11.00296875 10.44535156 -12.2559375 10.82820313 -13.546875 11.22265625 C-16.6738008 11.92656828 -18.09466046 12.16653785 -21 11 C-18.41577954 5.15741462 -16.1528313 3.06361507 -10.21875 0.7265625 C-6.35393287 -0.53902902 -3.9538603 -1.27088367 0 0 Z " fill="#FCF8F7" transform="translate(50,99)"/>
<path d="M0 0 C1.32 0 2.64 0 4 0 C4 4.29 4 8.58 4 13 C2.68 13.33 1.36 13.66 0 14 C-0.99 12.35 -1.98 10.7 -3 9 C-3.33 10.65 -3.66 12.3 -4 14 C-4.99 14 -5.98 14 -7 14 C-7 9.71 -7 5.42 -7 1 C-3 2 -3 2 -1 5 C-0.67 3.35 -0.34 1.7 0 0 Z " fill="#E49FA2" transform="translate(96,145)"/>
<path d="M0 0 C0.99 0.66 1.98 1.32 3 2 C2.67 2.99 2.34 3.98 2 5 C2.99 5 3.98 5 5 5 C5 5.99 5 6.98 5 8 C5.66 8 6.32 8 7 8 C7.33 6.35 7.66 4.7 8 3 C9.98 3 11.96 3 14 3 C14 3.33 14 3.66 14 4 C12.35 4 10.7 4 9 4 C9 5.98 9 7.96 9 10 C8.07960937 10.05994141 8.07960937 10.05994141 7.140625 10.12109375 C4.69966536 10.84032961 4.69966536 10.84032961 3.734375 13.72265625 C3.24710938 15.37587891 3.24710938 15.37587891 2.75 17.0625 C2.41484375 18.16722656 2.0796875 19.27195313 1.734375 20.41015625 C1.49203125 21.26480469 1.2496875 22.11945313 1 23 C-1.01953125 21.2265625 -1.01953125 21.2265625 -3 19 C-2.6875 15.375 -2.6875 15.375 -2 12 C-2.33 11.34 -2.66 10.68 -3 10 C-1.02 9.67 0.96 9.34 3 9 C3 8.34 3 7.68 3 7 C1.68 6.67 0.36 6.34 -1 6 C-0.34 6 0.32 6 1 6 C1 4.68 1 3.36 1 2 C0.34 1.67 -0.32 1.34 -1 1 C-0.67 0.67 -0.34 0.34 0 0 Z " fill="#BD1C25" transform="translate(143,135)"/>
<path d="M0 0 C6.15234375 -0.09765625 6.15234375 -0.09765625 8 0 C9 1 9 1 9.125 3.4375 C9 6 9 6 8 8 C8.89363605 10.60931266 8.89363605 10.60931266 10 13 C8.68 13 7.36 13 6 13 C5.34 11.68 4.68 10.36 4 9 C3.67 10.32 3.34 11.64 3 13 C2.01 13 1.02 13 0 13 C0 8.71 0 4.42 0 0 Z " fill="#F8BDC0" transform="translate(157,146)"/>
<path d="M0 0 C6.15234375 -0.09765625 6.15234375 -0.09765625 8 0 C9 1 9 1 9.125 3.4375 C9 6 9 6 8 8 C8.89363605 10.60931266 8.89363605 10.60931266 10 13 C8.68 13 7.36 13 6 13 C5.34 11.68 4.68 10.36 4 9 C3.67 10.32 3.34 11.64 3 13 C2.01 13 1.02 13 0 13 C0 8.71 0 4.42 0 0 Z " fill="#FBD2D0" transform="translate(133,146)"/>
<path d="M0 0 C12.19444128 -0.87975929 22.72289277 2.52037684 33 9 C31 10 31 10 28.04296875 9.0390625 C27.43453125 8.81500732 26.82609375 8.59095215 26.19921875 8.36010742 C15.59393428 4.48480263 5.20581736 4.08335716 -6 4 C-6 3.67 -6 3.34 -6 3 C-2.535 2.505 -2.535 2.505 1 2 C0.67 1.34 0.34 0.68 0 0 Z " fill="#AA2127" transform="translate(131,93)"/>
<path d="M0 0 C1.890625 0.23046875 1.890625 0.23046875 4 1 C5.046875 2.92578125 5.046875 2.92578125 5.75 5.3125 C5.99234375 6.09238281 6.2346875 6.87226563 6.484375 7.67578125 C7 10 7 10 7 14 C6.01 14 5.02 14 4 14 C4 13.01 4 12.02 4 11 C2.35 11 0.7 11 -1 11 C-1 11.99 -1 12.98 -1 14 C-1.99 14 -2.98 14 -4 14 C-3.46148032 8.72250715 -2.22656164 4.74354436 0 0 Z " fill="#FAD0CF" transform="translate(148,145)"/>
<path d="M0 0 C0.99 0 1.98 0 3 0 C3.67260351 1.76858691 4.33788395 3.53996016 5 5.3125 C5.37125 6.29863281 5.7425 7.28476563 6.125 8.30078125 C7 11 7 11 7 14 C6.01 14 5.02 14 4 14 C4 13.01 4 12.02 4 11 C2.35 11 0.7 11 -1 11 C-1.33 11.99 -1.66 12.98 -2 14 C-2.99 14 -3.98 14 -5 14 C-4.54636829 12.41531323 -4.08688548 10.83230076 -3.625 9.25 C-3.36976562 8.36828125 -3.11453125 7.4865625 -2.8515625 6.578125 C-2.0790066 4.23919428 -1.16374324 2.16557438 0 0 Z " fill="#FCE1E0" transform="translate(52,145)"/>
<path d="M0 0 C1.65 0.33 3.3 0.66 5 1 C5.50559908 2.43554025 6.0042749 3.8735202 6.5 5.3125 C6.7784375 6.11300781 7.056875 6.91351563 7.34375 7.73828125 C8 10 8 10 8 13 C7.01 13 6.02 13 5 13 C5 12.01 5 11.02 5 10 C3.35 10 1.7 10 0 10 C0 10.99 0 11.98 0 13 C-1.32 13 -2.64 13 -4 13 C-3.52140759 11.39566191 -3.04210442 9.79153584 -2.5625 8.1875 C-2.29566406 7.29417969 -2.02882813 6.40085938 -1.75390625 5.48046875 C-1.19612127 3.64526945 -0.60655425 1.81966274 0 0 Z " fill="#FBDBDA" transform="translate(23,146)"/>
<path d="M0 0 C3.3 0 6.6 0 10 0 C10 0.99 10 1.98 10 3 C7.69 3 5.38 3 3 3 C3 4.32 3 5.64 3 7 C4.65 7 6.3 7 8 7 C8 7.66 8 8.32 8 9 C6.35 9 4.7 9 3 9 C3 10.65 3 12.3 3 14 C4.98 14 6.96 14 9 14 C9 14.66 9 15.32 9 16 C6.03 16 3.06 16 0 16 C0 10.72 0 5.44 0 0 Z " fill="#FEF5F0" transform="translate(164,121)"/>
<path d="M0 0 C2 3 2 3 3.1875 5.5625 C5.6558737 8.88203704 8.04521616 9.17919581 12 10 C12 10.33 12 10.66 12 11 C10.02 11 8.04 11 6 11 C6 12.98 6 14.96 6 17 C5.01 17 4.02 17 3 17 C3 20.96 3 24.92 3 29 C2.67 29 2.34 29 2 29 C1.80522261 27.37585622 1.61940542 25.75063577 1.4375 24.125 C1.33308594 23.22007812 1.22867188 22.31515625 1.12109375 21.3828125 C1 19 1 19 2 17 C0.68 16.67 -0.64 16.34 -2 16 C-1.360625 15.71125 -0.72125 15.4225 -0.0625 15.125 C2.15206079 14.17176549 2.15206079 14.17176549 3 12 C0.69 11.67 -1.62 11.34 -4 11 C-2.68 10.67 -1.36 10.34 0 10 C0 6.7 0 3.4 0 0 Z " fill="#B21B21" transform="translate(40,128)"/>
<path d="M0 0 C7.59 0 15.18 0 23 0 C23 0.33 23 0.66 23 1 C18.20406383 1.9001836 13.48600386 2.29439762 8.625 2.5625 C7.88894531 2.60568359 7.15289062 2.64886719 6.39453125 2.69335938 C4.59651932 2.79843799 2.79828042 2.89962093 1 3 C0.34 4.65 -0.32 6.3 -1 8 C1.64 8 4.28 8 7 8 C7 8.33 7 8.66 7 9 C1.06 9.495 1.06 9.495 -5 10 C-8 5 -8 5 -8 2 C-7.34 2 -6.68 2 -6 2 C-6 2.99 -6 3.98 -6 5 C-2.37206002 3.13433512 -2.37206002 3.13433512 0 0 Z " fill="#F7CECD" transform="translate(53,75)"/>
<path d="M0 0 C4.47750118 -0.17558828 8.04689074 -0.25891958 12 2 C13.3125 4.125 13.3125 4.125 14 6 C9.52029862 7.74817615 5.81221774 8.46271324 1 8 C-1 5 -1 5 -0.625 2.3125 C-0.41875 1.549375 -0.2125 0.78625 0 0 Z " fill="#C7222E" transform="translate(132,138)"/>
<path d="M0 0 C2.64 0 5.28 0 8 0 C8 1.65 8 3.3 8 5 C7.67 4.01 7.34 3.02 7 2 C5.68 2 4.36 2 3 2 C3 3.32 3 4.64 3 6 C4.98 6 6.96 6 9 6 C8.67 6.66 8.34 7.32 8 8 C6.35 8 4.7 8 3 8 C3 9.65 3 11.3 3 13 C6.465 12.505 6.465 12.505 10 12 C10 12.99 10 13.98 10 15 C6.7 15 3.4 15 0 15 C0 10.05 0 5.1 0 0 Z " fill="#FEF1EE" transform="translate(109,122)"/>
<path d="M0 0 C0.66 2.31 1.32 4.62 2 7 C3.65 7.33 5.3 7.66 7 8 C7 7.34 7 6.68 7 6 C7.99 5.67 8.98 5.34 10 5 C9.979375 5.7425 9.95875 6.485 9.9375 7.25 C9.99360008 9.71840343 10.35920404 11.63864164 11 14 C2.10405257 12.70974808 2.10405257 12.70974808 -1.625 10.3125 C-3.51668925 7.13102263 -3.27910579 4.62837529 -3 1 C-1 0 -1 0 0 0 Z " fill="#F9DEDD" transform="translate(133,126)"/>
<path d="M0 0 C0.33 0.99 0.66 1.98 1 3 C3.31 3 5.62 3 8 3 C6.83024607 5.53446685 5.52774442 7.68691721 3.9375 10 C2.3098164 12.52028428 1.44658072 14.09722532 1 17 C-0.65 17 -2.3 17 -4 17 C-3.67 16.45601562 -3.34 15.91203125 -3 15.3515625 C-1.78708213 12.49931031 -1.86703002 10.45824141 -2 7.375 C-2.125 4.4609375 -2.125 4.4609375 -2 2 C-1.34 1.34 -0.68 0.68 0 0 Z " fill="#B4191F" transform="translate(58,121)"/>
<path d="M0 0 C1.875 0.125 1.875 0.125 4 1 C5.25 4.0625 5.25 4.0625 6 7 C6.99 5.02 7.98 3.04 9 1 C9.66 1 10.32 1 11 1 C10.68817931 2.41681634 10.37551263 3.83344651 10.0625 5.25 C9.88847656 6.03890625 9.71445312 6.8278125 9.53515625 7.640625 C9.052444 9.76878703 8.53836822 11.88532842 8 14 C6.68 14 5.36 14 4 14 C3.32739649 12.23141309 2.66211605 10.46003984 2 8.6875 C1.62875 7.70136719 1.2575 6.71523437 0.875 5.69921875 C0 3 0 3 0 0 Z " fill="#F7D0D2" transform="translate(30,145)"/>
<path d="M0 0 C0.33 0.99 0.66 1.98 1 3 C-0.65 3.66 -2.3 4.32 -4 5 C-4.29562367 10.32170494 -4.29562367 10.32170494 -2 15 C-4.375 15.1875 -4.375 15.1875 -7 15 C-9.45396331 11.31905504 -9.69693286 8.27624235 -9 4 C-6.43823763 0.20479649 -4.49728961 -0.49969885 0 0 Z " fill="#FCE0E5" transform="translate(51,121)"/>
<path d="M0 0 C4.875 1.75 4.875 1.75 6 4 C5.67 4.99 5.34 5.98 5 7 C7.31 7 9.62 7 12 7 C12.99 9.64 13.98 12.28 15 15 C14.278125 15.165 13.55625 15.33 12.8125 15.5 C8.73759826 17.67328093 7.1695735 21.03014211 5 25 C4.67 24.34 4.34 23.68 4 23 C4.9375 20.375 4.9375 20.375 6 18 C6.66 18 7.32 18 8 18 C8.33 16.02 8.66 14.04 9 12 C9.66 12 10.32 12 11 12 C11 11.01 11 10.02 11 9 C8.69 8.67 6.38 8.34 4 8 C4 7.34 4 6.68 4 6 C3.34 6 2.68 6 2 6 C1.34 4.02 0.68 2.04 0 0 Z " fill="#AD262E" transform="translate(33,70)"/>
<path d="M0 0 C1.32 0 2.64 0 4 0 C4 3.63 4 7.26 4 11 C5.65 11 7.3 11 9 11 C9 11.99 9 12.98 9 14 C2.84765625 14.09765625 2.84765625 14.09765625 1 14 C0 13 0 13 -0.09765625 10.05859375 C-0.08605469 8.86363281 -0.07445313 7.66867188 -0.0625 6.4375 C-0.05347656 5.23996094 -0.04445313 4.04242188 -0.03515625 2.80859375 C-0.02355469 1.88175781 -0.01195313 0.95492187 0 0 Z " fill="#EEB9B2" transform="translate(106,145)"/>
<path d="M0 0 C4.70588235 0.70588235 4.70588235 0.70588235 6 2 C6.23529412 7.52941176 6.23529412 7.52941176 5 10 C2.625 10.125 2.625 10.125 0 10 C-0.66 9.34 -1.32 8.68 -2 8 C-1.42307692 1.42307692 -1.42307692 1.42307692 0 0 Z " fill="#BB262C" transform="translate(135,124)"/>
<path d="M0 0 C1.32 0 2.64 0 4 0 C4 5.61 4 11.22 4 17 C2.68 17 1.36 17 0 17 C0 11.39 0 5.78 0 0 Z " fill="#FDCDCF" transform="translate(123,121)"/>
<path d="M0 0 C0 1.98 0 3.96 0 6 C-4.29 6.66 -8.58 7.32 -13 8 C-13.33 7.01 -13.66 6.02 -14 5 C-12.35 5 -10.7 5 -9 5 C-8.67 4.34 -8.34 3.68 -8 3 C-5.9375 2.375 -5.9375 2.375 -4 2 C-6.64 2 -9.28 2 -12 2 C-11.67 1.34 -11.34 0.68 -11 0 C-7.01133873 -0.99716532 -3.9676931 -1.0502717 0 0 Z " fill="#FBDAD8" transform="translate(116,72)"/>
<path d="M0 0 C0.99 0.33 1.98 0.66 3 1 C3 1.99 3 2.98 3 4 C3.99 4 4.98 4 6 4 C6.33 3.01 6.66 2.02 7 1 C10 5.75 10 5.75 10 8 C7.36 7.67 4.72 7.34 2 7 C1.67 8.32 1.34 9.64 1 11 C-0.32 11 -1.64 11 -3 11 C-2.01 7.37 -1.02 3.74 0 0 Z " fill="#FCECE7" transform="translate(75,127)"/>
<path d="M0 0 C3.91939465 3.80411834 7.49102731 7.81576108 11 12 C5.72346191 15.51769206 0.13607598 15.10579441 -6 15 C-5.67 14.34 -5.34 13.68 -5 13 C-2.93359375 12.5859375 -2.93359375 12.5859375 -0.4375 12.375 C0.80193359 12.26285156 0.80193359 12.26285156 2.06640625 12.1484375 C3.02353516 12.07496094 3.02353516 12.07496094 4 12 C3.34 11.34 2.68 10.68 2 10 C2.185625 9.38125 2.37125 8.7625 2.5625 8.125 C2.706875 7.42375 2.85125 6.7225 3 6 C1.6083124 3.86655232 1.6083124 3.86655232 0 2 C0 1.34 0 0.68 0 0 Z " fill="#B3272D" transform="translate(64,50)"/>
<path d="M0 0 C1.875 0.3125 1.875 0.3125 4 1 C4.66 1.99 5.32 2.98 6 4 C6.66 3.01 7.32 2.02 8 1 C8.99 1.33 9.98 1.66 11 2 C10.525625 2.86625 10.05125 3.7325 9.5625 4.625 C8.06765105 7.85387374 7.41781687 10.49033826 7 14 C6.01 14 5.02 14 4 14 C3.71125 12.80375 3.4225 11.6075 3.125 10.375 C2.2475666 6.85273164 1.19979363 3.42798179 0 0 Z " fill="#FED2DB" transform="translate(167,145)"/>
<path d="M0 0 C3.3 0 6.6 0 10 0 C10 0.99 10 1.98 10 3 C9.01 3 8.02 3 7 3 C7 6.63 7 10.26 7 14 C6.01 14 5.02 14 4 14 C4 10.37 4 6.74 4 3 C2.68 3 1.36 3 0 3 C0 2.01 0 1.02 0 0 Z " fill="#FBC6C7" transform="translate(58,145)"/>
<path d="M0 0 C3.53571429 0.53571429 3.53571429 0.53571429 5 2 C5.125 5.5 5.125 5.5 5 9 C4 10 4 10 1.5 10.125 C-1 10 -1 10 -2 9 C-2.1875 5.5625 -2.1875 5.5625 -2 2 C-1.34 1.34 -0.68 0.68 0 0 Z " fill="#C01E2A" transform="translate(48,124)"/>
<path d="M0 0 C0.33 0 0.66 0 1 0 C1 2.97 1 5.94 1 9 C1.99 9 2.98 9 4 9 C4 7.35 4 5.7 4 4 C4.33 4 4.66 4 5 4 C5 5.98 5 7.96 5 10 C5.66 10.33 6.32 10.66 7 11 C3.25 14 3.25 14 1 14 C0.34 13.01 -0.32 12.02 -1 11 C-1.66 10.34 -2.32 9.68 -3 9 C-5.10820797 9.3185177 -5.10820797 9.3185177 -7 10 C-7 9.01 -7 8.02 -7 7 C-5.35 7 -3.7 7 -2 7 C-1.34 4.69 -0.68 2.38 0 0 Z " fill="#B63338" transform="translate(101,128)"/>
<path d="M0 0 C1.01964844 -0.00257812 2.03929687 -0.00515625 3.08984375 -0.0078125 C5.85838725 0.11588064 8.36789535 0.49973262 11.0625 1.125 C11.0625 1.785 11.0625 2.445 11.0625 3.125 C-3.31587838 4.53040541 -3.31587838 4.53040541 -8.9375 3.125 C-9.2675 2.465 -9.5975 1.805 -9.9375 1.125 C-6.5771884 0.10965405 -3.50163714 -0.00883137 0 0 Z " fill="#BC333B" transform="translate(59.9375,92.875)"/>
<path d="M0 0 C0.66 0.33 1.32 0.66 2 1 C1.85691406 2.33804688 1.85691406 2.33804688 1.7109375 3.703125 C1.54464844 5.45882812 1.54464844 5.45882812 1.375 7.25 C1.25898437 8.41015625 1.14296875 9.5703125 1.0234375 10.765625 C1.00044405 13.93872091 1.30294846 15.38317244 3 18 C2.01 18.33 1.02 18.66 0 19 C-2.6875 17.5625 -2.6875 17.5625 -5 16 C-5 16.66 -5 17.32 -5 18 C-5.99 17.67 -6.98 17.34 -8 17 C-4.17391304 10.39130435 -4.17391304 10.39130435 0 9 C0 6.03 0 3.06 0 0 Z " fill="#CF3A41" transform="translate(92,128)"/>
<path d="M0 0 C1.80411967 2.75924185 2.0127245 3.88972103 1.625 7.25 C1.41875 8.1575 1.2125 9.065 1 10 C0.67 9.34 0.34 8.68 0 8 C0 8.99 0 9.98 0 11 C0 11.99 0 12.98 0 14 C-2.97 12.02 -5.94 10.04 -9 8 C-6 5 -6 5 -3.9375 4.5625 C-1.78826429 4.17549168 -1.78826429 4.17549168 -0.75 1.9375 C-0.37875 0.9784375 -0.37875 0.9784375 0 0 Z " fill="#C42C34" transform="translate(92,80)"/>
<path d="M0 0 C0.33 0 0.66 0 1 0 C1 5.61 1 11.22 1 17 C2.32 17.33 3.64 17.66 5 18 C3.02 18 1.04 18 -1 18 C-1.33 19.32 -1.66 20.64 -2 22 C-2.66 22 -3.32 22 -4 22 C-4 20.68 -4 19.36 -4 18 C-7.3 18 -10.6 18 -14 18 C-14 17.67 -14 17.34 -14 17 C-13.38511719 16.95101562 -12.77023438 16.90203125 -12.13671875 16.8515625 C-11.32847656 16.77679688 -10.52023438 16.70203125 -9.6875 16.625 C-8.88699219 16.55539063 -8.08648437 16.48578125 -7.26171875 16.4140625 C-4.72775559 16.10435574 -4.72775559 16.10435574 -2 14 C-1.1928418 10.66149945 -1.1928418 10.66149945 -0.8125 6.875 C-0.57466797 4.95300781 -0.57466797 4.95300781 -0.33203125 2.9921875 C-0.22246094 2.00476563 -0.11289063 1.01734375 0 0 Z " fill="#A61517" transform="translate(122,121)"/>
<path d="M0 0 C0.33 0.99 0.66 1.98 1 3 C0.67 3.66 0.34 4.32 0 5 C1.32 5.33 2.64 5.66 4 6 C3.01 6.33 2.02 6.66 1 7 C0.67 7.66 0.34 8.32 0 9 C0.66 9.33 1.32 9.66 2 10 C1.67 10.66 1.34 11.32 1 12 C0.01 12 -0.98 12 -2 12 C-2.33 12.99 -2.66 13.98 -3 15 C-3.33 14.34 -3.66 13.68 -4 13 C-6.35599235 12.53248212 -6.35599235 12.53248212 -9.0625 12.375 C-9.98160156 12.30023438 -10.90070312 12.22546875 -11.84765625 12.1484375 C-12.55792969 12.09945312 -13.26820312 12.05046875 -14 12 C-14 11.67 -14 11.34 -14 11 C-10.04 11 -6.08 11 -2 11 C-2 9.68 -2 8.36 -2 7 C-5.63 6.67 -9.26 6.34 -13 6 C-13 5.67 -13 5.34 -13 5 C-9.04 5 -5.08 5 -1 5 C-0.67 3.35 -0.34 1.7 0 0 Z " fill="#AC141C" transform="translate(72,133)"/>
<path d="M0 0 C0.66 0.33 1.32 0.66 2 1 C2 3.97 2 6.94 2 10 C1.67 10 1.34 10 1 10 C0.67 12.31 0.34 14.62 0 17 C-6.625 17.25 -6.625 17.25 -10 15 C-9.54625 14.608125 -9.0925 14.21625 -8.625 13.8125 C-6.72357081 11.69167513 -5.93795972 9.66957765 -5 7 C-4.67 7 -4.34 7 -4 7 C-4 9.97 -4 12.94 -4 16 C-3.01 16 -2.02 16 -1 16 C-1.01160156 15.26394531 -1.02320313 14.52789062 -1.03515625 13.76953125 C-1.04417969 12.79371094 -1.05320312 11.81789062 -1.0625 10.8125 C-1.07990234 9.36810547 -1.07990234 9.36810547 -1.09765625 7.89453125 C-1.00486622 5.14423487 -0.62111685 2.67520409 0 0 Z " fill="#BC3D42" transform="translate(40,121)"/>
<path d="M0 0 C2.92582625 0.33511666 3.87356559 0.8559608 5.8515625 3.109375 C6.72941406 4.41648437 6.72941406 4.41648437 7.625 5.75 C8.21539062 6.61109375 8.80578125 7.4721875 9.4140625 8.359375 C10.91301017 10.85515979 12.00773242 13.26880804 13 16 C7.25 14.25 7.25 14.25 5 12 C5.66 12 6.32 12 7 12 C6.67 10.02 6.34 8.04 6 6 C5.01 6.33 4.02 6.66 3 7 C2.87625 6.030625 2.7525 5.06125 2.625 4.0625 C2.41875 3.051875 2.2125 2.04125 2 1 C1.34 0.67 0.68 0.34 0 0 Z " fill="#FBE4DE" transform="translate(150,85)"/>
<path d="M0 0 C0.66 0 1.32 0 2 0 C2 0.66 2 1.32 2 2 C4.31 2 6.62 2 9 2 C9 3.32 9 4.64 9 6 C5.04 6 1.08 6 -3 6 C-3 4.68 -3 3.36 -3 2 C-2.01 2 -1.02 2 0 2 C0 1.34 0 0.68 0 0 Z " fill="#F5CFD0" transform="translate(62,132)"/>
<path d="M0 0 C1.32 0 2.64 0 4 0 C4 5.28 4 10.56 4 16 C3.01 16 2.02 16 1 16 C0.9729957 14.54176788 0.95360213 13.08339325 0.9375 11.625 C0.92589844 10.81289062 0.91429687 10.00078125 0.90234375 9.1640625 C1 7 1 7 2 5 C1.34 5 0.68 5 0 5 C0 3.35 0 1.7 0 0 Z " fill="#FEE8E6" transform="translate(35,121)"/>
<path d="M0 0 C8.57142857 -0.28571429 8.57142857 -0.28571429 12 2 C12 1.34 12 0.68 12 0 C12.556875 0.309375 13.11375 0.61875 13.6875 0.9375 C16.12540433 2.05761821 18.36224186 2.56037364 21 3 C21.33 4.32 21.66 5.64 22 7 C17.06005452 7.49399455 14.30047671 6.30933288 10.1015625 4.0234375 C6.83844297 2.43433468 3.5400523 1.75858264 0 1 C0 0.67 0 0.34 0 0 Z " fill="#F8D3CC" transform="translate(79,107)"/>
<path d="M0 0 C6.15234375 -0.09765625 6.15234375 -0.09765625 8 0 C9 1 9 1 9.0625 3.5625 C9.041875 4.366875 9.02125 5.17125 9 6 C7.02 6.99 7.02 6.99 5 8 C5.33 5.69 5.66 3.38 6 1 C4.68 1 3.36 1 2 1 C2 4.63 2 8.26 2 12 C1.34 12 0.68 12 0 12 C0 8.04 0 4.08 0 0 Z " fill="#FFF1EB" transform="translate(157,146)"/>
<path d="M0 0 C0.66 0.33 1.32 0.66 2 1 C1.67 1.66 1.34 2.32 1 3 C3.64 3 6.28 3 9 3 C9 3.33 9 3.66 9 4 C8.15695313 4.19335938 7.31390625 4.38671875 6.4453125 4.5859375 C5.34960938 4.84632812 4.25390625 5.10671875 3.125 5.375 C2.03445312 5.63023438 0.94390625 5.88546875 -0.1796875 6.1484375 C-3.10408455 6.78906215 -3.10408455 6.78906215 -5 9 C-7.625 9.125 -7.625 9.125 -10 9 C-9.01 8.67 -8.02 8.34 -7 8 C-6.896875 7.401875 -6.79375 6.80375 -6.6875 6.1875 C-5.60997459 2.75901006 -2.97735118 1.77374113 0 0 Z " fill="#FCE2E3" transform="translate(107,104)"/>
<path d="M0 0 C1.5625 1.1875 1.5625 1.1875 3 3 C2.6875 5.6875 2.6875 5.6875 2 8 C1.34 7.67 0.68 7.34 0 7 C-1.99960012 6.960008 -4.00047242 6.95653201 -6 7 C-6 5.35 -6 3.7 -6 2 C-4.02 1.34 -2.04 0.68 0 0 Z " fill="#E1979B" transform="translate(118,128)"/>
<path d="M0 0 C0 0.33 0 0.66 0 1 C-1.0621875 1.19335938 -2.124375 1.38671875 -3.21875 1.5859375 C-13.67188487 3.50577023 -13.67188487 3.50577023 -24 6 C-17.17706008 -1.39683206 -9.44655523 -1.47052975 0 0 Z " fill="#A71920" transform="translate(58,96)"/>
<path d="M0 0 C1.32 0.33 2.64 0.66 4 1 C4.66 3.64 5.32 6.28 6 9 C4 9 2 9 0 9 C-1.125 6.75 -1.125 6.75 -2 4 C-1.125 1.6875 -1.125 1.6875 0 0 Z " fill="#F3C7CA" transform="translate(148,145)"/>
<path d="M0 0 C0.99 0 1.98 0 3 0 C3 5.28 3 10.56 3 16 C2.01 15.34 1.02 14.68 0 14 C-0.29296875 10.7421875 -0.29296875 10.7421875 -0.1875 6.875 C-0.16042969 5.59367187 -0.13335937 4.31234375 -0.10546875 2.9921875 C-0.07066406 2.00476563 -0.03585938 1.01734375 0 0 Z " fill="#FEEAEA" transform="translate(148,121)"/>
<path d="M0 0 C0.33 0 0.66 0 1 0 C1 4.29 1 8.58 1 13 C1.99 13 2.98 13 4 13 C4 11.35 4 9.7 4 8 C4.99 8.99 5.98 9.98 7 11 C6.67 11.99 6.34 12.98 6 14 C3.03 13.67 0.06 13.34 -3 13 C-2.835 12.05125 -2.67 11.1025 -2.5 10.125 C-1.9473365 7.19831099 -1.9473365 7.19831099 -2 5 C-1.34 5 -0.68 5 0 5 C0 3.35 0 1.7 0 0 Z " fill="#A62829" transform="translate(132,146)"/>
<path d="M0 0 C1.32 0 2.64 0 4 0 C4.33 2.31 4.66 4.62 5 7 C3.34385343 7.38218767 1.67542976 7.71395102 0 8 C-1 7 -1 7 -1.125 4 C-1 1 -1 1 0 0 Z " fill="#B72A2F" transform="translate(79,148)"/>
<path d="M0 0 C2.4375 0.75 2.4375 0.75 5 2 C5.8125 4.125 5.8125 4.125 6 6 C2.78548731 7.60725635 -0.43612536 7.05748185 -4 7 C-2.68 4.69 -1.36 2.38 0 0 Z " fill="#BD242E" transform="translate(68,127)"/>
<path d="M0 0 C0.99 0 1.98 0 3 0 C3 4.62 3 9.24 3 14 C2.01 14 1.02 14 0 14 C0 9.38 0 4.76 0 0 Z " fill="#FCCDCE" transform="translate(116,145)"/>
<path d="M0 0 C0.99 0 1.98 0 3 0 C3 4.62 3 9.24 3 14 C2.01 14 1.02 14 0 14 C0 9.38 0 4.76 0 0 Z " fill="#FDCFD1" transform="translate(43,145)"/>
<path d="M0 0 C0.99 0 1.98 0 3 0 C3 4.62 3 9.24 3 14 C2.01 14 1.02 14 0 14 C0 9.38 0 4.76 0 0 Z " fill="#FECECE" transform="translate(70,145)"/>
<path d="M0 0 C2.015625 3.6953125 2.015625 3.6953125 1.875 6.4375 C2.04699594 9.96341676 3.6730759 11.45492677 6 14 C5.01 14 4.02 14 3 14 C3 15.98 3 17.96 3 20 C2.01 19.01 1.02 18.02 0 17 C0.33 16.01 0.66 15.02 1 14 C0.34 13.01 -0.32 12.02 -1 11 C-0.9765625 8.30078125 -0.9765625 8.30078125 -0.625 5.3125 C-0.51414062 4.31863281 -0.40328125 3.32476562 -0.2890625 2.30078125 C-0.19367188 1.54152344 -0.09828125 0.78226563 0 0 Z " fill="#B3181E" transform="translate(93,131)"/>
<path d="M0 0 C0.66666667 2.66666667 1.33333333 5.33333333 2 8 C2.99 8 3.98 8 5 8 C5 9.65 5 11.3 5 13 C3.68 13.33 2.36 13.66 1 14 C0.44417248 12.04563873 -0.09428713 10.08633018 -0.625 8.125 C-0.92664063 7.03445312 -1.22828125 5.94390625 -1.5390625 4.8203125 C-1.69117187 3.88960938 -1.84328125 2.95890625 -2 2 C-1.34 1.34 -0.68 0.68 0 0 Z " fill="#FCE8E7" transform="translate(94,76)"/>
<path d="M0 0 C0.99 0 1.98 0 3 0 C4.4606285 2.64738916 5 3.89448334 5 7 C4.34 7 3.68 7 3 7 C3 7.66 3 8.32 3 9 C2.01 9 1.02 9 0 9 C-1.125 6.75 -1.125 6.75 -2 4 C-1.125 1.6875 -1.125 1.6875 0 0 Z " fill="#F8C9CA" transform="translate(52,145)"/>
<path d="M0 0 C0.99 0 1.98 0 3 0 C2.67 4.95 2.34 9.9 2 15 C1.01 15 0.02 15 -1 15 C-0.67 10.05 -0.34 5.1 0 0 Z " fill="#FDF1EA" transform="translate(90,122)"/>
<path d="M0 0 C0.66 0 1.32 0 2 0 C2 4.29 2 8.58 2 13 C1.01 13 0.02 13 -1 13 C-2.4606285 10.35261084 -3 9.10551666 -3 6 C-2.34 6 -1.68 6 -1 6 C-0.67 4.02 -0.34 2.04 0 0 Z " fill="#FCE5E2" transform="translate(97,146)"/>
<path d="M0 0 C1.65 0 3.3 0 5 0 C4.01 0.33 3.02 0.66 2 1 C2 5.62 2 10.24 2 15 C1.01 15 0.02 15 -1 15 C-1.33 14.34 -1.66 13.68 -2 13 C-1.67 12.34 -1.34 11.68 -1 11 C-0.85624578 7.62177584 -0.92463652 5.22609045 -2 2 C-1.34 2 -0.68 2 0 2 C0 1.34 0 0.68 0 0 Z " fill="#AA2C2F" transform="translate(87,144)"/>
<path d="M0 0 C0.33 0.66 0.66 1.32 1 2 C0.071875 1.95875 -0.85625 1.9175 -1.8125 1.875 C-5.15809719 1.72863661 -5.15809719 1.72863661 -8 4 C-8.80092254 6.64691668 -8.80092254 6.64691668 -9.1875 9.625 C-9.34605469 10.62789062 -9.50460938 11.63078125 -9.66796875 12.6640625 C-9.77753906 13.43492187 -9.88710937 14.20578125 -10 15 C-10.33 15 -10.66 15 -11 15 C-11 10.38 -11 5.76 -11 1 C-7.0526448 0.21052896 -3.95712151 -0.09202608 0 0 Z " fill="#A12128" transform="translate(84,144)"/>
<path d="M0 0 C0.66 0.33 1.32 0.66 2 1 C1.01 2.98 0.02 4.96 -1 7 C0.65 7 2.3 7 4 7 C1.09907498 8.93395001 0.10325263 9.30131941 -3.1875 9.625 C-4.445625 9.74875 -5.70375 9.8725 -7 10 C-6.40606618 8.70359622 -5.79942011 7.41301161 -5.1875 6.125 C-4.85105469 5.40570313 -4.51460937 4.68640625 -4.16796875 3.9453125 C-3 2 -3 2 0 0 Z " fill="#FAD1C9" transform="translate(36,101)"/>
<path d="M0 0 C0.33 0.66 0.66 1.32 1 2 C-2.07617188 2.29296875 -2.07617188 2.29296875 -5.15234375 2.5859375 C-5.76207031 2.72257813 -6.37179688 2.85921875 -7 3 C-7.33 3.66 -7.66 4.32 -8 5 C-8.66 5 -9.32 5 -10 5 C-10 4.01 -10 3.02 -10 2 C-10.99 2 -11.98 2 -13 2 C-13 1.34 -13 0.68 -13 0 C-11.58456585 -0.19658808 -10.16755969 -0.38187546 -8.75 -0.5625 C-7.96109375 -0.66691406 -7.1721875 -0.77132812 -6.359375 -0.87890625 C-3.95874887 -1.00211719 -2.25079123 -0.83159765 0 0 Z " fill="#C6202F" transform="translate(65,142)"/>
<path d="M0 0 C0.99 0 1.98 0 3 0 C3 5.61 3 11.22 3 17 C2.34 17 1.68 17 1 17 C-0.22517308 11.33357449 -0.09228867 5.76291482 0 0 Z " fill="#AC1218" transform="translate(105,121)"/>
<path d="M0 0 C0.33 0 0.66 0 1 0 C1 3.96 1 7.92 1 12 C1.66 12 2.32 12 3 12 C3 10.35 3 8.7 3 7 C4.32 7 5.64 7 7 7 C6.79375 7.61875 6.5875 8.2375 6.375 8.875 C6.25125 9.57625 6.1275 10.2775 6 11 C6.66 11.66 7.32 12.32 8 13 C5.36 13 2.72 13 0 13 C0 8.71 0 4.42 0 0 Z " fill="#D9787B" transform="translate(121,146)"/>
<path d="M0 0 C0.33 0 0.66 0 1 0 C1 2.31 1 4.62 1 7 C1.66 7.33 2.32 7.66 3 8 C1.4375 9.5625 1.4375 9.5625 -1 11 C-4.75 10.6875 -4.75 10.6875 -8 10 C-5.82575883 7.49962266 -4.26954202 6.56371414 -1 6 C-0.67 4.02 -0.34 2.04 0 0 Z " fill="#F7C8C6" transform="translate(53,127)"/>
<path d="M0 0 C5.68814194 -0.08662145 11.38490587 -0.15286559 17.0625 0.25 C17.75472656 0.29640625 18.44695312 0.3428125 19.16015625 0.390625 C21.72607694 1.24048408 22.57227203 2.77612466 24 5 C23.10539062 4.79503906 22.21078125 4.59007813 21.2890625 4.37890625 C14.19588943 2.79844445 7.25513889 1.48479039 0 1 C0 0.67 0 0.34 0 0 Z " fill="#FBD9DC" transform="translate(56,92)"/>
<path d="M0 0 C3.3 0 6.6 0 10 0 C10 0.99 10 1.98 10 3 C7.03 3 4.06 3 1 3 C1 4.65 1 6.3 1 8 C0.67 8 0.34 8 0 8 C0 5.36 0 2.72 0 0 Z " fill="#FDDEDA" transform="translate(164,121)"/>
<path d="M0 0 C0.33 0.99 0.66 1.98 1 3 C3.31 2.34 5.62 1.68 8 1 C8 1.99 8 2.98 8 4 C8.99 4.33 9.98 4.66 11 5 C10.01 5.495 10.01 5.495 9 6 C9 6.66 9 7.32 9 8 C8.01 8 7.02 8 6 8 C6 7.01 6 6.02 6 5 C3.03 4.505 3.03 4.505 0 4 C0 2.68 0 1.36 0 0 Z " fill="#C32A39" transform="translate(94,87)"/>
<path d="M0 0 C1.17949219 0.10183594 2.35898438 0.20367187 3.57421875 0.30859375 C4.47785156 0.39238281 5.38148438 0.47617188 6.3125 0.5625 C6.3125 0.8925 6.3125 1.2225 6.3125 1.5625 C5.32507813 1.69527344 4.33765625 1.82804687 3.3203125 1.96484375 C2.03898438 2.14144531 0.75765625 2.31804687 -0.5625 2.5 C-2.47675781 2.76103516 -2.47675781 2.76103516 -4.4296875 3.02734375 C-7.56309454 3.37683227 -7.56309454 3.37683227 -9.6875 4.5625 C-10.6775 3.9025 -11.6675 3.2425 -12.6875 2.5625 C-11.6975 2.5625 -10.7075 2.5625 -9.6875 2.5625 C-9.6875 1.9025 -9.6875 1.2425 -9.6875 0.5625 C-6.14075997 -0.61974668 -3.71227005 -0.33079634 0 0 Z " fill="#C23038" transform="translate(133.6875,93.4375)"/>
<path d="M0 0 C0.66 0.33 1.32 0.66 2 1 C2 4.96 2 8.92 2 13 C-0.26568725 10.73431275 -0.55280451 9.56766015 -1.25 6.5 C-1.44078125 5.7059375 -1.6315625 4.911875 -1.828125 4.09375 C-1.88484375 3.4028125 -1.9415625 2.711875 -2 2 C-1.34 1.34 -0.68 0.68 0 0 Z " fill="#B51C29" transform="translate(154,144)"/>
<path d="M0 0 C0.66 0.99 1.32 1.98 2 3 C0.23462904 4.17491582 -1.53749713 5.33968684 -3.3125 6.5 C-4.29863281 7.1496875 -5.28476563 7.799375 -6.30078125 8.46875 C-9 10 -9 10 -12 10 C-10.37744772 8.51814875 -8.75188112 7.03959744 -7.125 5.5625 C-6.22007813 4.73878906 -5.31515625 3.91507812 -4.3828125 3.06640625 C-2 1 -2 1 0 0 Z " fill="#A62E38" transform="translate(109,100)"/>
<path d="M0 0 C0 0.66 0 1.32 0 2 C-0.7425 2.12375 -1.485 2.2475 -2.25 2.375 C-4.93668367 2.8649631 -4.93668367 2.8649631 -6.9375 4 C-9.57152412 5.2771026 -12.11484648 5.60656997 -15 6 C-10.45815256 0.95350285 -6.74558506 -0.31374814 0 0 Z " fill="#A8282A" transform="translate(120,67)"/>
<path d="M0 0 C0.33 0.99 0.66 1.98 1 3 C2.98 3 4.96 3 7 3 C4.77174356 5.22825644 3.34238372 5.69239369 0.375 6.625 C-0.44226562 6.88539062 -1.25953125 7.14578125 -2.1015625 7.4140625 C-2.72804687 7.60742188 -3.35453125 7.80078125 -4 8 C-2.87548273 5.0280615 -1.77706209 2.66559313 0 0 Z " fill="#F9C7C8" transform="translate(39,92)"/>
<path d="M0 0 C1.32 0.66 2.64 1.32 4 2 C3.67 2.99 3.34 3.98 3 5 C3.66 5 4.32 5 5 5 C4 8 4 8 2.15234375 8.94921875 C1.05599609 9.31466797 1.05599609 9.31466797 -0.0625 9.6875 C-1.16271484 10.06455078 -1.16271484 10.06455078 -2.28515625 10.44921875 C-2.85105469 10.63097656 -3.41695313 10.81273438 -4 11 C-4 10.34 -4 9.68 -4 9 C-3.34 9 -2.68 9 -2 9 C-2 8.34 -2 7.68 -2 7 C-1.34 7 -0.68 7 0 7 C0.66 5.35 1.32 3.7 2 2 C1.34 2 0.68 2 0 2 C0 1.34 0 0.68 0 0 Z " fill="#BE252E" transform="translate(113,78)"/>
<path d="M0 0 C0.33 1.32 0.66 2.64 1 4 C1.66 4 2.32 4 3 4 C2.67 6.31 2.34 8.62 2 11 C0.35 11 -1.3 11 -3 11 C-2.690625 10.484375 -2.38125 9.96875 -2.0625 9.4375 C-0.70940713 6.33334577 -0.38640576 3.34884993 0 0 Z " fill="#B12A36" transform="translate(57,127)"/>
<path d="M0 0 C0.99 1.32 1.98 2.64 3 4 C3.66 3.67 4.32 3.34 5 3 C4.25 8.75 4.25 8.75 2 11 C2 10.01 2 9.02 2 8 C0.68 7.67 -0.64 7.34 -2 7 C-1.34 4.69 -0.68 2.38 0 0 Z " fill="#B21823" transform="translate(71,121)"/>
<path d="M0 0 C1.65 0 3.3 0 5 0 C5 2.97 5 5.94 5 9 C4.67 9 4.34 9 4 9 C3.67 7.35 3.34 5.7 3 4 C2.01 4 1.02 4 0 4 C0 4.99 0 5.98 0 7 C-0.66 7 -1.32 7 -2 7 C-1.34 4.69 -0.68 2.38 0 0 Z " fill="#F9CCC8" transform="translate(100,121)"/>
<path d="M0 0 C4.24480464 -0.33292585 6.35542625 -0.43885872 9.9375 2 C10.618125 2.66 11.29875 3.32 12 4 C11.01 4.33 10.02 4.66 9 5 C9 4.34 9 3.68 9 3 C7.35 3 5.7 3 4 3 C3.67 3.66 3.34 4.32 3 5 C1.5 3.625 1.5 3.625 0 2 C0 1.34 0 0.68 0 0 Z " fill="#FBCECD" transform="translate(51,33)"/>
<path d="M0 0 C2.49505962 2.49505962 2.35948376 3.67328888 2.625 7.125 C2.69976562 8.03507813 2.77453125 8.94515625 2.8515625 9.8828125 C2.90054688 10.58148438 2.94953125 11.28015625 3 12 C1 12 1 12 -0.67578125 10.79296875 C-2 9 -2 9 -1.85546875 6.73828125 C-1.63503906 5.93777344 -1.41460937 5.13726562 -1.1875 4.3125 C-0.97480469 3.50425781 -0.76210938 2.69601563 -0.54296875 1.86328125 C-0.36378906 1.24839844 -0.18460938 0.63351563 0 0 Z " fill="#C02B34" transform="translate(40,148)"/>
<path d="M0 0 C0.33 0 0.66 0 1 0 C1.1875 2.375 1.1875 2.375 1 5 C0.01 5.66 -0.98 6.32 -2 7 C-3.32 6.34 -4.64 5.68 -6 5 C-6 3.68 -6 2.36 -6 1 C-3.525 1.495 -3.525 1.495 -1 2 C-0.67 1.34 -0.34 0.68 0 0 Z " fill="#DD9695" transform="translate(141,147)"/>
<path d="M0 0 C0.33 0.99 0.66 1.98 1 3 C2.32 3 3.64 3 5 3 C5 6.3 5 9.6 5 13 C4.67 13 4.34 13 4 13 C4 10.03 4 7.06 4 4 C3.34 4 2.68 4 2 4 C2 5.98 2 7.96 2 10 C-0.58787727 7.41212273 -0.62709152 5.57992139 -1 2 C-0.67 1.34 -0.34 0.68 0 0 Z " fill="#A31A1E" transform="translate(57,145)"/>
<path d="M0 0 C0.99 0.495 0.99 0.495 2 1 C1.01 1.495 1.01 1.495 0 2 C0 1.34 0 0.68 0 0 Z M-1 2 C-0.01 2.33 0.98 2.66 2 3 C2 3.66 2 4.32 2 5 C2.66 5.33 3.32 5.66 4 6 C2.68 6 1.36 6 0 6 C0 10.29 0 14.58 0 19 C-0.33 19 -0.66 19 -1 19 C-1.19386492 16.35448944 -1.38038267 13.70882217 -1.5625 11.0625 C-1.61857422 10.30775391 -1.67464844 9.55300781 -1.73242188 8.77539062 C-1.86176157 6.85254042 -1.93516912 4.92610452 -2 3 C-1.67 2.67 -1.34 2.34 -1 2 Z " fill="#B8131D" transform="translate(106,139)"/>
<path d="M0 0 C1.65 0 3.3 0 5 0 C4.25 5.75 4.25 5.75 2 8 C-0.1519437 4.77208445 -0.20086443 3.71599191 0 0 Z " fill="#B82126" transform="translate(29,121)"/>
<path d="M0 0 C1 4 1 4 0 6 C0.99 6.33 1.98 6.66 3 7 C2.34 8.32 1.68 9.64 1 11 C-0.32 11 -1.64 11 -3 11 C-2.01 7.37 -1.02 3.74 0 0 Z " fill="#F5C1BE" transform="translate(75,127)"/>
<path d="M0 0 C1.65 0 3.3 0 5 0 C5 2.31 5 4.62 5 7 C4.01 7 3.02 7 2 7 C0.5393715 4.35261084 0 3.10551666 0 0 Z " fill="#D59D9C" transform="translate(76,124)"/>
<path d="M0 0 C-0.33 0.99 -0.66 1.98 -1 3 C-3.31 3.33 -5.62 3.66 -8 4 C-8.66 3.01 -9.32 2.02 -10 1 C-6.78548731 -0.60725635 -3.56387464 -0.05748185 0 0 Z " fill="#FBC8C3" transform="translate(86,155)"/>
<path d="M0 0 C0.33 0 0.66 0 1 0 C1.33 4.29 1.66 8.58 2 13 C0 10 0 10 0 8 C-0.66 8 -1.32 8 -2 8 C-2.6875 6.25 -2.6875 6.25 -3 4 C-1.625 1.75 -1.625 1.75 0 0 Z " fill="#BB2B36" transform="translate(87,124)"/>
<path d="M0 0 C1.32 0.33 2.64 0.66 4 1 C3.67 2.32 3.34 3.64 3 5 C2.01 5 1.02 5 0 5 C-0.66 5.66 -1.32 6.32 -2 7 C-2 6.34 -2 5.68 -2 5 C-3.65 5 -5.3 5 -7 5 C-7 4.67 -7 4.34 -7 4 C-5.35 4 -3.7 4 -2 4 C-2 3.34 -2 2.68 -2 2 C-1.34 2 -0.68 2 0 2 C0 1.34 0 0.68 0 0 Z " fill="#B91C1F" transform="translate(96,116)"/>
<path d="M0 0 C1.72880982 -0.05449838 3.45812712 -0.09301688 5.1875 -0.125 C6.15042969 -0.14820313 7.11335937 -0.17140625 8.10546875 -0.1953125 C11.12812778 0.0086456 13.26769985 0.73125368 16 2 C13.64561267 3.42944945 12.51967567 4.08661261 9.75 3.625 C9.1725 3.41875 8.595 3.2125 8 3 C8 2.67 8 2.34 8 2 C5.36 1.67 2.72 1.34 0 1 C0 0.67 0 0.34 0 0 Z " fill="#F2C9CE" transform="translate(138,48)"/>
<path d="M0 0 C0.66 0 1.32 0 2 0 C3.53166168 4.08443115 2.63081652 7.79455657 2 12 C1.34 12 0.68 12 0 12 C0 8.04 0 4.08 0 0 Z " fill="#FFEAEA" transform="translate(89,146)"/>
<path d="M0 0 C2.50736509 2.18031747 3.48600243 3.71041554 4 7 C4 7.99 4 8.98 4 10 C3.01 10 2.02 10 1 10 C0.67 10.66 0.34 11.32 0 12 C-0.33 11.01 -0.66 10.02 -1 9 C-0.67 8.67 -0.34 8.34 0 8 C0.04384447 6.33391013 0.0396713 4.66619446 0 3 C0 2.01 0 1.02 0 0 Z " fill="#A61C23" transform="translate(165,144)"/>
<path d="M0 0 C1.65 0.33 3.3 0.66 5 1 C4.01 1.33 3.02 1.66 2 2 C2 2.66 2 3.32 2 4 C2.99 4.33 3.98 4.66 5 5 C4.01 5.33 3.02 5.66 2 6 C0.78130071 8.50447516 0.78130071 8.50447516 0 11 C-1.35015859 6.94952424 -0.62084998 4.2079832 0 0 Z " fill="#BE1A1F" transform="translate(50,140)"/>
<path d="M0 0 C1.98 0 3.96 0 6 0 C6 1.65 6 3.3 6 5 C4.02 5 2.04 5 0 5 C0 3.35 0 1.7 0 0 Z " fill="#F5D3C9" transform="translate(151,133)"/>
<path d="M0 0 C0.33 2.64 0.66 5.28 1 8 C-0.32 8 -1.64 8 -3 8 C-3 5.69 -3 3.38 -3 1 C-1 0 -1 0 0 0 Z " fill="#FEEEE9" transform="translate(133,126)"/>
<path d="M0 0 C1.60379341 -0.05416188 3.20811406 -0.09286638 4.8125 -0.125 C5.70582031 -0.14820312 6.59914062 -0.17140625 7.51953125 -0.1953125 C10 0 10 0 13 2 C14.32 2 15.64 2 17 2 C17 2.66 17 3.32 17 4 C11.2190275 3.36934845 5.6556294 2.34844868 0 1 C0 0.67 0 0.34 0 0 Z " fill="#F5C5C4" transform="translate(150,107)"/>
<path d="M0 0 C1.5 1.375 1.5 1.375 3 3 C3 3.66 3 4.32 3 5 C4.32 5.33 5.64 5.66 7 6 C0.375 7.25 0.375 7.25 -3 5 C-2.01 5 -1.02 5 0 5 C0 3.35 0 1.7 0 0 Z " fill="#B31816" transform="translate(160,154)"/>
<path d="M0 0 C1.98 0.495 1.98 0.495 4 1 C3.67 4.63 3.34 8.26 3 12 C3.99 12.33 4.98 12.66 6 13 C4.68 13 3.36 13 2 13 C1.92652344 11.95199219 1.92652344 11.95199219 1.8515625 10.8828125 C1.73941406 9.51769531 1.73941406 9.51769531 1.625 8.125 C1.55539063 7.22007812 1.48578125 6.31515625 1.4140625 5.3828125 C1.20431868 2.82058097 1.20431868 2.82058097 -1 1 C-0.67 0.67 -0.34 0.34 0 0 Z " fill="#D3272D" transform="translate(109,142)"/>
<path d="M0 0 C1.4540625 0.0309375 1.4540625 0.0309375 2.9375 0.0625 C2.6075 0.7225 2.2775 1.3825 1.9375 2.0625 C1.2775 2.0625 0.6175 2.0625 -0.0625 2.0625 C-1.0525 4.0425 -2.0425 6.0225 -3.0625 8.0625 C-3.3925 8.0625 -3.7225 8.0625 -4.0625 8.0625 C-4.10491723 5.72955225 -4.10342937 3.39547433 -4.0625 1.0625 C-3.0625 0.0625 -3.0625 0.0625 0 0 Z " fill="#BB3739" transform="translate(39.0625,144.9375)"/>
<path d="M0 0 C2.97 0 5.94 0 9 0 C9 0.33 9 0.66 9 1 C7.63875 1.37125 7.63875 1.37125 6.25 1.75 C2.89648511 3.03981342 1.32291764 4.31971042 -1 7 C-0.67 4.69 -0.34 2.38 0 0 Z " fill="#B8272F" transform="translate(42,120)"/>
<path d="M0 0 C2.31 0 4.62 0 7 0 C7 0.99 7 1.98 7 3 C5.02 3.33 3.04 3.66 1 4 C0.67 2.68 0.34 1.36 0 0 Z " fill="#C7242C" transform="translate(90,49)"/>
<path d="M0 0 C0.33 1.32 0.66 2.64 1 4 C2.98 4 4.96 4 7 4 C7 4.33 7 4.66 7 5 C5.35 5 3.7 5 2 5 C1.67 5.99 1.34 6.98 1 8 C0.01 8 -0.98 8 -2 8 C-1.34 5.36 -0.68 2.72 0 0 Z " fill="#F3B4AE" transform="translate(49,151)"/>
<path d="M0 0 C4.875 1.75 4.875 1.75 6 4 C5.67 4.99 5.34 5.98 5 7 C5.66 7.33 6.32 7.66 7 8 C6.01 8 5.02 8 4 8 C4 7.34 4 6.68 4 6 C3.34 6 2.68 6 2 6 C1.34 4.02 0.68 2.04 0 0 Z " fill="#B31C25" transform="translate(33,70)"/>
<path d="M0 0 C0.99 0.33 1.98 0.66 3 1 C3 2.65 3 4.3 3 6 C1.02 6.99 1.02 6.99 -1 8 C-0.67 5.36 -0.34 2.72 0 0 Z " fill="#FBDDD9" transform="translate(163,146)"/>
<path d="M0 0 C2.31 0 4.62 0 7 0 C7 0.99 7 1.98 7 3 C4.69 3 2.38 3 0 3 C0 2.01 0 1.02 0 0 Z " fill="#B41A24" transform="translate(168,131)"/>
<path d="M0 0 C0.66 0 1.32 0 2 0 C1.67 2.64 1.34 5.28 1 8 C2.32 8.33 3.64 8.66 5 9 C3.33388095 9.042721 1.66617115 9.04063832 0 9 C-1 8 -1 8 -1.125 4.5 C-1 1 -1 1 0 0 Z " fill="#AE1C27" transform="translate(47,125)"/>
<path d="M0 0 C-0.99 1.485 -0.99 1.485 -2 3 C-5.625 3.1875 -5.625 3.1875 -9 3 C-8.67 2.01 -8.34 1.02 -8 0 C-5.04215769 -1.22393475 -3.00272755 -0.96516243 0 0 Z " fill="#CA323C" transform="translate(48,108)"/>
<path d="M0 0 C-0.66 0.66 -1.32 1.32 -2 2 C-4.6015625 1.9765625 -4.6015625 1.9765625 -7.625 1.625 C-8.62789063 1.51414062 -9.63078125 1.40328125 -10.6640625 1.2890625 C-11.82035156 1.14597656 -11.82035156 1.14597656 -13 1 C-13 0.67 -13 0.34 -13 0 C-8.34462607 -0.83796731 -4.62921525 -1.0161692 0 0 Z " fill="#A71E22" transform="translate(77,96)"/>
<path d="M0 0 C0.33 0.66 0.66 1.32 1 2 C1.66 2 2.32 2 3 2 C2.67 3.98 2.34 5.96 2 8 C0.68 6.68 -0.64 5.36 -2 4 C-1.34 2.68 -0.68 1.36 0 0 Z " fill="#A71C23" transform="translate(142,150)"/>
<path d="M0 0 C1.32 0.33 2.64 0.66 4 1 C4.625 2.8125 4.625 2.8125 5 5 C4.01 6.485 4.01 6.485 3 8 C0 2.25 0 2.25 0 0 Z " fill="#F7BCB8" transform="translate(167,145)"/>
<path d="M0 0 C-0.33 1.65 -0.66 3.3 -1 5 C-1.66 4.34 -2.32 3.68 -3 3 C-3.99 3 -4.98 3 -6 3 C-6 2.01 -6 1.02 -6 0 C-3 -1 -3 -1 0 0 Z " fill="#D89694" transform="translate(131,148)"/>
<path d="M0 0 C0.66 0 1.32 0 2 0 C2.66 2.64 3.32 5.28 4 8 C3.01 8 2.02 8 1 8 C-1.125 3.375 -1.125 3.375 0 0 Z " fill="#D9A2A2" transform="translate(147,146)"/>
<path d="M0 0 C2.64 0 5.28 0 8 0 C8 1.65 8 3.3 8 5 C7.34 4.34 6.68 3.68 6 3 C4.03871245 2.1762044 4.03871245 2.1762044 2 2 C1.34 2.66 0.68 3.32 0 4 C0 2.68 0 1.36 0 0 Z " fill="#FEE8E5" transform="translate(133,146)"/>
<path d="M0 0 C1.98 0 3.96 0 6 0 C6 0.99 6 1.98 6 3 C5.01 3 4.02 3 3 3 C2.67 3.99 2.34 4.98 2 6 C0 3 0 3 0 0 Z " fill="#F7BDC6" transform="translate(122,145)"/>
<path d="M0 0 C0.33 0 0.66 0 1 0 C1 1.98 1 3.96 1 6 C1.66 6.33 2.32 6.66 3 7 C-0.75 10 -0.75 10 -3 10 C-3 8.35 -3 6.7 -3 5 C-2.01 5 -1.02 5 0 5 C0 3.35 0 1.7 0 0 Z " fill="#D23C43" transform="translate(105,132)"/>
<path d="M0 0 C0 0.66 0 1.32 0 2 C-2.31 2.66 -4.62 3.32 -7 4 C-7.33 2.68 -7.66 1.36 -8 0 C-4.94736336 -0.98120464 -3.05263664 -0.98120464 0 0 Z " fill="#B0282E" transform="translate(124,96)"/>
<path d="M0 0 C0.99 0.33 1.98 0.66 3 1 C3 2.98 3 4.96 3 7 C2.01 7 1.02 7 0 7 C0 4.69 0 2.38 0 0 Z " fill="#FCD9D8" transform="translate(84,148)"/>
<path d="M0 0 C0.33 0.66 0.66 1.32 1 2 C1.66 2 2.32 2 3 2 C3.33 3.98 3.66 5.96 4 8 C3.01 8 2.02 8 1 8 C-1.125 3.375 -1.125 3.375 0 0 Z " fill="#DCA1A6" transform="translate(51,146)"/>
<path d="M0 0 C0 0.99 0 1.98 0 3 C-3.3 2.34 -6.6 1.68 -10 1 C-10 0.67 -10 0.34 -10 0 C-6.30458414 -0.95024979 -3.69541586 -0.95024979 0 0 Z " fill="#F6C7CC" transform="translate(144,137)"/>
<path d="M0 0 C3.72114571 2.31537955 6.61229661 4.28579473 9 8 C5.4213696 6.34832443 2.25179812 4.21713508 -1 2 C-0.67 1.34 -0.34 0.68 0 0 Z " fill="#933235" transform="translate(88,102)"/>
<path d="M0 0 C0 1.98 0 3.96 0 6 C-0.33 5.34 -0.66 4.68 -1 4 C-2.32 4 -3.64 4 -5 4 C-5 3.01 -5 2.02 -5 1 C-3 0 -3 0 0 0 Z " fill="#D21928" transform="translate(91,80)"/>
<path d="M0 0 C1.76462683 3.08809695 2 4.23312136 2 8 C0.68 8 -0.64 8 -2 8 C-1.34 5.36 -0.68 2.72 0 0 Z " fill="#F6ABAB" transform="translate(21,151)"/>
<path d="M0 0 C1.32 0 2.64 0 4 0 C3.67 1.65 3.34 3.3 3 5 C2.01 5 1.02 5 0 5 C0 3.35 0 1.7 0 0 Z " fill="#C5766A" transform="translate(159,147)"/>
<path d="M0 0 C1.32 0.33 2.64 0.66 4 1 C4.33 2.65 4.66 4.3 5 6 C3.68 5.67 2.36 5.34 1 5 C0.67 3.35 0.34 1.7 0 0 Z " fill="#F4B9B8" transform="translate(30,145)"/>
<path d="M0 0 C1.98 0 3.96 0 6 0 C6 0.99 6 1.98 6 3 C3.69 3 1.38 3 -1 3 C-0.67 2.01 -0.34 1.02 0 0 Z " fill="#B81A25" transform="translate(158,142)"/>
<path d="M0 0 C2.31 0 4.62 0 7 0 C6.1875 1.9375 6.1875 1.9375 5 4 C4.01 4.33 3.02 4.66 2 5 C2 4.01 2 3.02 2 2 C1.34 1.34 0.68 0.68 0 0 Z " fill="#C0403F" transform="translate(59,124)"/>
<path d="M0 0 C0.66 0.33 1.32 0.66 2 1 C1.67 2.32 1.34 3.64 1 5 C0.01 5 -0.98 5 -2 5 C-2 6.65 -2 8.3 -2 10 C-2.33 10 -2.66 10 -3 10 C-3.36923077 4.58461538 -3.36923077 4.58461538 -1.5 1.625 C-1.005 1.08875 -0.51 0.5525 0 0 Z " fill="#F5BFBE" transform="translate(132,122)"/>
<path d="M0 0 C0.66 0 1.32 0 2 0 C1.67 2.97 1.34 5.94 1 9 C0.01 8.01 -0.98 7.02 -2 6 C-1.34 5.67 -0.68 5.34 0 5 C0 3.35 0 1.7 0 0 Z " fill="#BA252E" transform="translate(158,84)"/>
<path d="M0 0 C3.3 0.33 6.6 0.66 10 1 C10 1.33 10 1.66 10 2 C8.02 2 6.04 2 4 2 C3.67 2.66 3.34 3.32 3 4 C2.01 3.34 1.02 2.68 0 2 C0 1.34 0 0.68 0 0 Z " fill="#FCD8D7" transform="translate(31,66)"/>
<path d="M0 0 C0.99 0.33 1.98 0.66 3 1 C2.01 2.98 1.02 4.96 0 7 C-0.33 6.34 -0.66 5.68 -1 5 C-1.66 4.67 -2.32 4.34 -3 4 C-2.01 2.68 -1.02 1.36 0 0 Z " fill="#FBD0CB" transform="translate(175,146)"/>
<path d="M0 0 C0.33 0.99 0.66 1.98 1 3 C1.66 3 2.32 3 3 3 C3.33 4.65 3.66 6.3 4 8 C3.01 8 2.02 8 1 8 C-1.125 3.375 -1.125 3.375 0 0 Z " fill="#D89696" transform="translate(23,146)"/>
<path d="M0 0 C2 2 2 2 3 5 C3.66 5.66 4.32 6.32 5 7 C2.39417629 7.93065133 1.35801776 8.14917407 -1.25 7.0625 C-1.8275 6.711875 -2.405 6.36125 -3 6 C-1.68 6 -0.36 6 1 6 C0.67 4.02 0.34 2.04 0 0 Z " fill="#B0171B" transform="translate(86,132)"/>
<path d="M0 0 C2.12508244 3.18762365 2.5020163 5.26512223 3 9 C1.68 8.67 0.36 8.34 -1 8 C-1 7.34 -1 6.68 -1 6 C-0.34 6 0.32 6 1 6 C0.67 4.02 0.34 2.04 0 0 Z " fill="#F7BCB8" transform="translate(84,129)"/>
<path d="M0 0 C1.65 0 3.3 0 5 0 C4.67 1.32 4.34 2.64 4 4 C2.68 4 1.36 4 0 4 C0 2.68 0 1.36 0 0 Z " fill="#FCDFDF" transform="translate(95,131)"/>
<path d="M0 0 C0.99 0.33 1.98 0.66 3 1 C1.71937515 2.7074998 0.38232443 4.37373596 -1 6 C-1.66 6 -2.32 6 -3 6 C-3 4.68 -3 3.36 -3 2 C-2.01 1.34 -1.02 0.68 0 0 Z " fill="#BB292C" transform="translate(131,120)"/>
<path d="M0 0 C1.65 0 3.3 0 5 0 C4.34 1.98 3.68 3.96 3 6 C1.5 4.6875 1.5 4.6875 0 3 C0 2.01 0 1.02 0 0 Z " fill="#B21A29" transform="translate(95,123)"/>
<path d="M0 0 C0.33 0.99 0.66 1.98 1 3 C-0.65 3.66 -2.3 4.32 -4 5 C-4 4.01 -4 3.02 -4 2 C-4.66 1.67 -5.32 1.34 -6 1 C-4.02 0.67 -2.04 0.34 0 0 Z " fill="#C3292F" transform="translate(116,107)"/>
<path d="M0 0 C-3.08888522 2.05925681 -3.70935927 2.2390374 -7.1875 2.125 C-9.0746875 2.063125 -9.0746875 2.063125 -11 2 C-6.98764085 -0.6749061 -4.6342454 -1.48957888 0 0 Z " fill="#F6C3CC" transform="translate(50,99)"/>
<path d="M0 0 C1.1875 1.6875 1.1875 1.6875 1.1875 3.6875 C-4.5625 1.9375 -4.5625 1.9375 -6.8125 -0.3125 C-2.28877737 -1.65739051 -2.28877737 -1.65739051 0 0 Z " fill="#F5B1A9" transform="translate(161.8125,97.3125)"/>
<path d="M0 0 C0.66 0.66 1.32 1.32 2 2 C1.625 4.625 1.625 4.625 1 7 C0.01 7.33 -0.98 7.66 -2 8 C-1.34 5.36 -0.68 2.72 0 0 Z " fill="#B91F20" transform="translate(18,152)"/>
<path d="M0 0 C0.33 0.66 0.66 1.32 1 2 C3.01669827 3.13350534 3.01669827 3.13350534 5 4 C-1.0546875 4.1953125 -1.0546875 4.1953125 -3 4 C-3.66 3.34 -4.32 2.68 -5 2 C-2 0 -2 0 0 0 Z " fill="#AE1D24" transform="translate(122,135)"/>
<path d="M0 0 C1.875 0.25 1.875 0.25 4 1 C5.25 3.0625 5.25 3.0625 6 5 C3 5 3 5 1.3125 3.625 C0 2 0 2 0 0 Z " fill="#C2313E" transform="translate(87,88)"/>
<path d="M0 0 C2.64 1.65 5.28 3.3 8 5 C7.01 5.495 7.01 5.495 6 6 C3.64018187 5.06421005 1.30368736 4.06652192 -1 3 C-0.67 2.01 -0.34 1.02 0 0 Z " fill="#FAD5D4" transform="translate(74,44)"/>
<path d="M0 0 C7.75 -0.125 7.75 -0.125 10 1 C10 1.66 10 2.32 10 3 C9.01 3.33 8.02 3.66 7 4 C6.67 3.01 6.34 2.02 6 1 C4.02 1 2.04 1 0 1 C0 0.67 0 0.34 0 0 Z " fill="#C82B32" transform="translate(52,31)"/>
</svg>
